<?xml version="1.0" standalone="no"?>
<!DOCTYPE svg PUBLIC "-//W3C//DTD SVG 20010904//EN"
 "http://www.w3.org/TR/2001/REC-SVG-20010904/DTD/svg10.dtd">
<svg version="1.0" xmlns="http://www.w3.org/2000/svg"
 width="1242.000000pt" height="757.000000pt" viewBox="0 0 1242.000000 757.000000"
 preserveAspectRatio="xMidYMid meet">

<g transform="translate(0.000000,757.000000) scale(0.100000,-0.100000)"
fill="#000000" stroke="none">
<path d="M0 3785 l0 -3785 6210 0 6210 0 0 3785 0 3785 -6210 0 -6210 0 0
-3785z m11830 3477 c31 -12 77 -35 103 -52 26 -16 58 -32 71 -36 31 -8 138 20
200 51 27 14 50 24 52 22 15 -15 -54 -163 -106 -227 l-20 -25 21 -60 c63 -179
15 -392 -121 -534 -53 -55 -147 -113 -222 -137 -69 -22 -390 -31 -498 -15
-372 57 -567 481 -366 799 67 107 210 208 326 232 25 5 149 8 275 6 210 -2
235 -4 285 -24z m-1735 -281 c-27 -5 -30 -10 -33 -49 -3 -42 -3 -42 32 -42 46
0 66 9 67 29 0 11 2 12 6 3 3 -7 -3 -22 -13 -33 -18 -20 -18 -22 -1 -51 10
-17 15 -33 13 -36 -3 -2 -13 12 -22 32 -30 61 -84 60 -84 -2 0 -19 -2 -33 -4
-31 -7 6 -14 178 -8 184 3 3 21 4 41 4 36 -1 36 -1 6 -8z m580 -179 c-13 -13
-18 14 -17 88 2 115 16 123 20 11 1 -51 0 -96 -3 -99z m-507 143 c-3 -3 -9 2
-12 12 -6 14 -5 15 5 6 7 -7 10 -15 7 -18z m115 -12 c-30 -6 -42 -23 -45 -67
-3 -44 13 -58 59 -53 17 1 29 -1 27 -5 -11 -17 -73 -8 -87 13 -29 41 3 121 47
118 20 -2 20 -2 -1 -6z m162 0 c-11 -3 -27 -10 -35 -17 -13 -10 -13 -9 -1 7 7
9 23 16 35 16 20 -1 20 -2 1 -6z m155 -6 c-19 -9 -26 -22 -28 -50 -4 -45 9
-64 46 -70 25 -4 25 -4 -4 -6 -39 -1 -54 16 -56 63 -1 39 24 76 51 76 10 0 7
-5 -9 -13z m-100 -80 c0 -32 -4 -46 -11 -41 -6 3 -8 17 -5 30 5 19 2 26 -16
34 l-23 9 23 0 c25 1 26 4 11 34 -10 21 -10 21 5 3 10 -12 16 -39 16 -69z
m-160 36 c0 -25 -15 -12 -17 14 -1 19 1 22 8 12 5 -8 9 -20 9 -26z m68 -33
c-7 -10 -14 -17 -17 -15 -4 4 18 35 25 35 2 0 -1 -9 -8 -20z m52 -44 c0 -9
-39 -13 -51 -5 -10 6 -4 9 19 9 17 0 32 -2 32 -4z m-795 -186 c25 -28 31 -99
11 -138 -23 -45 -26 -40 -7 13 14 40 14 49 1 87 -11 30 -22 44 -40 49 -22 6
-22 7 -4 8 11 1 29 -8 39 -19z m224 17 c-2 -1 -13 -9 -24 -17 -19 -14 -19 -14
-6 3 7 9 18 17 24 17 6 0 8 -1 6 -3z m50 -23 c37 -47 21 -164 -22 -164 -8 0
-9 2 -1 8 41 27 46 121 9 157 -13 14 -20 25 -15 25 5 0 18 -12 29 -26z m187 1
c15 -24 22 -100 10 -113 -3 -3 -6 15 -6 39 0 50 -22 89 -50 89 -45 0 -68 -107
-34 -160 l16 -25 -21 24 c-29 32 -30 122 -1 151 28 28 66 26 86 -5z m254 -19
c0 -6 -4 -5 -9 3 -5 7 -14 10 -20 7 -13 -8 -14 -4 -4 20 6 16 7 16 20 -2 7
-10 13 -23 13 -28z m135 14 c18 -35 20 -54 2 -25 -10 17 -13 9 -18 -60 l-5
-80 -2 98 c-1 53 0 97 3 97 2 0 11 -13 20 -30z m153 -67 c-2 -86 -2 -89 -5
-28 -2 38 -9 72 -15 76 -9 6 5 49 17 49 3 0 4 -44 3 -97z m-1178 65 c0 -21 0
-21 -14 -3 -12 17 -16 18 -32 5 -17 -14 -18 -14 -5 3 20 25 51 22 51 -5z m97
-8 c-12 -31 -31 -43 -20 -12 6 17 23 42 28 42 2 0 -2 -13 -8 -30z m259 -54
c-1 -40 4 -59 18 -75 16 -17 17 -21 4 -16 -28 11 -47 89 -32 129 9 24 10 21
10 -38z m-356 24 c0 -5 -5 -10 -11 -10 -5 0 -7 5 -4 10 3 6 8 10 11 10 2 0 4
-4 4 -10z m88 -50 c0 -17 6 -38 13 -46 7 -9 8 -14 1 -14 -6 0 -14 5 -17 11
-11 17 -17 91 -7 85 5 -3 9 -19 10 -36z m1043 13 c-12 -20 -14 -14 -5 12 4 9
9 14 11 11 3 -2 0 -13 -6 -23z m-1133 -35 l-1 -53 -6 45 c-6 43 -5 60 5 60 2
0 3 -24 2 -52z m938 -45 c-3 -3 -8 6 -12 21 -3 14 -10 26 -15 26 -5 0 -9 12
-8 28 0 23 3 20 20 -22 11 -27 18 -51 15 -53z m-109 49 c-8 -10 -17 -26 -21
-36 -3 -10 -9 -17 -12 -14 -8 9 29 78 38 72 5 -3 3 -13 -5 -22z m-552 -12 c3
-5 1 -10 -4 -10 -6 0 -11 5 -11 10 0 6 2 10 4 10 3 0 8 -4 11 -10z m805 0 c0
-5 -2 -10 -4 -10 -3 0 -8 5 -11 10 -3 6 -1 10 4 10 6 0 11 -4 11 -10z m-442
-20 c-7 -11 -16 -20 -20 -20 -5 0 -3 9 4 20 7 11 16 20 20 20 5 0 3 -9 -4 -20z
m466 -4 c-6 -15 -24 -23 -24 -11 0 8 24 34 28 30 1 -1 0 -10 -4 -19z m-9910
-331 c117 -31 212 -113 269 -233 30 -62 32 -75 31 -167 0 -118 -22 -185 -84
-264 -82 -103 -188 -154 -325 -155 -110 -1 -171 18 -254 79 -250 184 -217 570
61 711 89 45 199 56 302 29z m5359 -440 c-4 -12 5 -15 41 -15 l47 0 -3 -72 -3
-73 -37 -3 c-42 -4 -45 -9 -24 -38 14 -19 15 -19 38 4 45 41 55 15 11 -30
l-26 -28 38 -35 c29 -28 35 -39 26 -48 -10 -9 -21 -3 -48 28 -19 22 -39 49
-43 60 -7 15 -9 8 -9 -27 -1 -67 -8 -78 -47 -78 -24 0 -34 5 -34 16 0 10 7 14
23 12 19 -3 22 2 25 41 5 69 -6 83 -28 33 -25 -55 -68 -98 -83 -83 -8 8 -1 20
26 46 43 42 48 65 13 65 -15 0 -26 7 -29 20 -3 12 -14 20 -26 20 -20 0 -21 -5
-21 -90 0 -73 -3 -90 -15 -90 -12 0 -15 17 -15 90 l0 90 -31 -2 c-19 -2 -34 2
-36 10 -3 7 4 12 16 12 11 0 25 9 32 21 9 18 7 25 -15 48 -31 32 -33 51 -7 51
12 0 25 12 33 30 7 17 19 30 25 30 19 0 16 -18 -8 -56 -19 -31 -19 -54 -1 -54
4 0 16 14 25 30 10 17 22 30 28 30 17 0 9 -27 -21 -68 -35 -49 -38 -62 -10
-55 11 3 20 14 20 24 0 33 19 20 31 -21 10 -34 16 -40 40 -40 15 0 34 -3 43
-6 12 -4 16 0 16 15 0 18 -6 21 -40 21 l-40 0 0 75 0 75 28 0 c16 0 37 9 47
20 19 21 37 18 28 -5z m-1835 -50 l-4 -53 21 32 c83 124 209 10 165 -149 -15
-54 -75 -111 -127 -121 -39 -7 -70 11 -37 22 58 20 101 47 117 73 22 38 23
138 1 169 -36 52 -116 6 -129 -76 -11 -61 -16 -72 -32 -72 -13 0 -15 15 -11
108 2 59 8 113 12 120 16 26 28 -2 24 -53z m-2258 25 c0 -22 -24 -32 -39 -17
-15 15 -14 34 2 40 20 7 37 -4 37 -23z m828 5 c5 -22 -18 -37 -35 -23 -17 13
-17 35 0 41 19 8 32 2 35 -18z m482 -5 c0 -22 -24 -32 -39 -17 -15 15 -14 34
2 40 20 7 37 -4 37 -23z m1416 17 c2 -7 -9 -46 -26 -86 -16 -41 -30 -76 -30
-78 0 -2 9 1 19 7 31 16 69 12 81 -9 5 -11 10 -40 10 -64 0 -52 18 -72 56 -63
18 5 31 20 48 57 19 43 24 49 35 36 30 -36 -43 -127 -102 -127 -45 0 -67 25
-67 76 0 54 -8 74 -29 74 -27 0 -61 -38 -88 -97 -13 -29 -31 -53 -39 -53 -8 0
-14 4 -14 8 0 7 89 251 115 315 8 20 24 22 31 4z m407 -3 c-10 -65 -9 -69 24
-72 21 -2 40 -13 54 -30 19 -24 20 -35 15 -95 -9 -93 -27 -127 -69 -127 -37 0
-73 21 -63 38 4 7 15 7 36 -1 45 -17 55 0 55 96 l0 82 -33 0 c-31 0 -34 -3
-56 -65 -32 -91 -64 -150 -81 -150 -16 0 -20 25 -6 35 8 5 71 155 71 170 0 3
-18 5 -40 5 -29 0 -40 4 -40 15 0 11 11 15 40 15 34 0 42 4 50 26 6 14 10 37
10 50 0 19 4 24 18 22 9 -2 16 -8 15 -14z m2147 -14 c0 -10 -6 -20 -12 -23
-21 -7 -38 4 -38 23 0 10 6 20 13 23 20 7 37 -4 37 -23z m-4920 -70 c0 -49 3
-90 8 -90 4 0 26 21 50 45 24 25 52 45 63 45 28 0 24 -9 -26 -60 l-45 -46 50
-59 c27 -33 50 -63 50 -67 0 -5 -10 -8 -23 -8 -15 0 -36 17 -65 55 -24 30 -48
53 -53 50 -5 -4 -9 -28 -9 -56 0 -42 -3 -49 -20 -49 -19 0 -20 7 -20 165 0
158 1 165 20 165 19 0 20 -7 20 -90z m1610 87 c0 -2 -9 -30 -20 -63 -28 -81
-28 -174 0 -258 25 -76 19 -95 -15 -52 -56 70 -66 222 -22 319 15 34 32 57 41
57 9 0 16 -2 16 -3z m2460 -52 c21 -42 25 -64 25 -140 0 -77 -4 -98 -27 -147
-16 -34 -33 -58 -42 -58 -20 0 -20 9 -1 48 28 56 39 149 26 220 -7 36 -19 78
-27 93 -18 36 -18 41 4 37 9 -2 28 -25 42 -53z m-4570 30 c53 -27 57 -118 8
-158 l-22 -18 32 -58 c18 -32 32 -61 32 -65 0 -3 -10 -6 -22 -6 -18 0 -32 16
-58 63 -31 54 -39 62 -65 62 -29 0 -30 -1 -35 -60 -4 -53 -8 -60 -27 -63 l-23
-3 0 160 0 161 75 0 c48 0 87 -6 105 -15z m1200 -125 l0 -139 78 -3 c60 -2 77
-6 77 -18 0 -12 -19 -16 -97 -18 l-98 -3 0 161 c0 153 1 160 20 160 19 0 20
-7 20 -140z m4048 120 c48 -30 72 -75 72 -140 0 -65 -24 -110 -72 -140 -26
-15 -51 -20 -110 -20 l-78 0 0 160 0 160 78 0 c59 0 84 -5 110 -20z m-1631
-70 c6 -140 24 -198 56 -171 9 7 19 26 22 42 7 30 35 41 35 14 0 -29 -28 -83
-48 -94 -54 -29 -92 41 -100 182 -5 93 -4 99 14 95 16 -3 19 -13 21 -68z
m2573 45 c0 -14 6 -27 13 -29 48 -15 50 -16 37 -31 -7 -9 -20 -14 -29 -13 -14
3 -16 -9 -16 -77 0 -72 2 -80 20 -84 43 -8 41 -41 -2 -41 -50 0 -63 24 -63
117 0 76 -2 85 -20 90 -11 3 -20 12 -20 19 0 8 9 14 20 14 16 0 20 7 20 30 0
23 4 30 20 30 15 0 20 -7 20 -25z m-2345 -33 c31 -48 68 -150 61 -169 -11 -27
-29 -7 -42 45 -8 28 -25 70 -39 92 -44 70 -25 100 20 32z m-408 6 c30 -33 65
-107 59 -124 -8 -22 -23 -17 -30 10 -3 13 -21 46 -40 74 -31 46 -35 62 -16 62
4 0 16 -10 27 -22z m-3299 -131 c3 -112 2 -117 -18 -117 -19 0 -20 6 -20 121
0 109 2 120 18 117 15 -3 17 -18 20 -121z m108 112 c4 -8 9 -8 17 0 20 20 94
13 117 -11 17 -19 20 -35 20 -120 0 -91 -1 -98 -20 -98 -19 0 -20 7 -20 89 0
82 -2 91 -22 105 -28 20 -39 20 -64 2 -15 -12 -20 -30 -24 -103 -5 -80 -7 -88
-25 -88 -19 0 -20 8 -23 104 -1 58 0 111 2 118 6 16 32 17 42 2z m599 -14 c23
-22 25 -32 25 -115 0 -74 -3 -92 -16 -97 -10 -4 -20 1 -26 11 -8 14 -11 15
-24 1 -23 -23 -83 -19 -111 7 -30 28 -29 63 2 93 19 20 34 25 75 25 47 0 50 2
50 25 0 13 -8 29 -18 34 -19 10 -69 4 -78 -10 -7 -12 -44 -12 -44 0 0 5 12 19
26 30 39 31 107 29 139 -4z m123 -98 c3 -112 2 -117 -18 -117 -19 0 -20 6 -20
121 0 109 2 120 18 117 15 -3 17 -18 20 -121z m480 0 c3 -112 2 -117 -18 -117
-19 0 -20 6 -20 121 0 109 2 120 18 117 15 -3 17 -18 20 -121z m97 113 c4 -7
12 -7 25 0 36 20 87 12 109 -16 18 -23 21 -41 21 -120 0 -87 -1 -94 -20 -94
-18 0 -20 7 -20 83 0 94 -12 120 -54 120 -42 0 -51 -17 -56 -111 -5 -79 -7
-87 -25 -87 -19 0 -20 8 -23 104 -1 58 0 111 2 118 6 15 32 17 41 3z m377 -17
c16 -17 28 -42 30 -63 l3 -35 -83 -3 c-78 -3 -83 -4 -80 -24 2 -12 15 -30 30
-41 l27 -20 42 22 c31 16 45 19 53 11 8 -8 4 -18 -17 -36 -36 -31 -103 -33
-140 -4 -53 42 -58 134 -10 191 21 24 32 29 72 29 39 0 52 -5 73 -27z m3493
-93 c0 -101 -2 -115 -17 -118 -16 -3 -18 8 -18 118 0 110 2 121 18 118 15 -3
17 -17 17 -118z m98 108 c4 -10 7 -10 18 0 13 12 61 17 72 6 13 -13 -7 -34
-33 -34 -41 0 -49 -17 -52 -110 -3 -77 -5 -85 -23 -85 -19 0 -20 8 -23 104 -1
58 0 111 2 118 7 17 33 17 39 1z m284 -8 c24 -22 48 -84 38 -100 -3 -5 -42
-10 -86 -10 -70 0 -79 -2 -79 -18 0 -20 24 -45 51 -55 10 -3 34 3 54 14 50 27
69 11 30 -25 -59 -54 -152 -25 -176 55 -16 50 1 109 38 138 34 28 102 28 130
1z m258 -5 c45 -44 24 -77 -21 -34 -28 26 -68 28 -94 4 -25 -22 -27 -91 -4
-123 20 -29 70 -29 100 -1 12 12 27 18 33 14 37 -22 -22 -75 -84 -75 -54 0
-91 28 -106 81 -16 50 1 109 38 138 38 31 106 29 138 -4z m-1196 1 c15 -18 3
-46 -20 -46 -22 0 -34 22 -25 45 7 19 30 19 45 1z m-850 -128 c-1 -47 -12 -81
-28 -86 -10 -3 -12 7 -6 49 8 59 12 69 26 69 5 0 9 -15 8 -32z m97 -3 c7 -39
-2 -58 -16 -35 -13 20 -13 70 0 70 5 0 12 -16 16 -35z m753 -39 c15 -18 3 -46
-20 -46 -22 0 -34 22 -25 45 7 19 30 19 45 1z m-3671 -271 c4 -20 -15 -36 -35
-28 -17 6 -17 40 0 46 19 8 32 2 35 -18z m1080 0 c4 -20 -15 -36 -35 -28 -17
6 -17 40 0 46 19 8 32 2 35 -18z m2322 -5 c0 -10 -6 -20 -12 -23 -21 -7 -38 4
-38 23 0 10 6 20 13 23 20 7 37 -4 37 -23z m728 5 c4 -20 -15 -36 -35 -28 -17
6 -17 40 0 46 19 8 32 2 35 -18z m-2788 -40 c0 -51 10 -69 25 -45 3 6 24 10
46 10 70 0 93 -45 87 -170 -3 -57 -5 -65 -23 -65 -18 0 -20 7 -21 72 -2 93 -9
119 -35 126 -28 7 -65 -7 -73 -28 -3 -9 -6 -52 -6 -96 0 -72 -2 -79 -20 -79
-19 0 -20 7 -20 165 0 158 1 165 20 165 18 0 20 -7 20 -55z m540 -7 c0 -59 1
-60 18 -45 26 23 87 22 111 -2 25 -25 33 -68 29 -151 -3 -57 -5 -65 -23 -65
-18 0 -20 8 -25 92 -3 50 -8 95 -12 99 -5 4 -22 7 -39 7 -47 0 -59 -23 -59
-120 0 -76 -2 -83 -20 -83 -19 0 -20 7 -20 165 0 158 1 165 20 165 18 0 20 -7
20 -62z m750 -86 c0 -131 -1 -140 -22 -160 -13 -11 -34 -23 -48 -27 -48 -12
-109 26 -110 68 0 23 32 22 47 -2 16 -25 48 -32 72 -14 19 13 21 24 21 144 0
122 1 129 20 129 19 0 20 -7 20 -138z m249 123 c34 -17 41 -33 41 -86 0 -30
-7 -47 -27 -67 l-26 -26 31 -57 c18 -32 32 -60 32 -63 0 -3 -10 -6 -22 -6 -18
0 -32 16 -58 63 -32 56 -38 62 -68 62 -32 0 -32 -1 -32 -47 0 -59 -7 -78 -31
-78 -18 0 -19 10 -19 160 l0 160 75 0 c47 0 87 -6 104 -15z m271 -125 l0 -139
78 -3 c60 -2 77 -6 77 -18 0 -12 -19 -16 -97 -18 l-98 -3 0 161 c0 153 1 160
20 160 19 0 20 -7 20 -140z m-3290 91 c0 -24 5 -30 25 -33 32 -4 34 -21 3 -28
-21 -5 -23 -12 -26 -82 -2 -65 0 -78 15 -86 10 -6 23 -10 28 -11 23 -2 8 -26
-18 -29 -52 -6 -67 20 -67 115 0 76 -2 85 -20 90 -11 3 -20 12 -20 19 0 8 9
14 20 14 16 0 20 7 20 30 0 23 4 30 20 30 15 0 20 -7 20 -29z m1342 2 c2 -20
9 -29 26 -31 12 -2 22 -10 22 -17 0 -7 -10 -15 -22 -17 -21 -3 -23 -10 -26
-63 -4 -75 3 -101 28 -108 32 -8 25 -37 -8 -37 -47 0 -61 25 -64 120 -2 67 -6
85 -18 85 -23 0 -24 32 0 38 14 3 20 13 20 31 0 38 37 36 42 -1z m530 0 c2
-20 9 -29 26 -31 12 -2 22 -10 22 -18 0 -13 -6 -16 -26 -13 -15 2 -24 -30 -24
-86 0 -64 5 -78 33 -88 28 -10 21 -37 -10 -37 -50 0 -63 24 -63 117 0 76 -2
85 -20 90 -11 3 -20 12 -20 19 0 8 9 14 20 14 16 0 20 7 20 30 0 23 5 30 19
30 14 0 21 -8 23 -27z m532 -59 c21 -22 40 -87 27 -99 -2 -3 -40 -5 -83 -5
-80 0 -87 -4 -67 -41 18 -34 56 -42 94 -19 38 24 55 25 55 6 0 -28 -50 -56
-100 -56 -41 0 -52 4 -73 30 -14 16 -28 47 -32 70 -19 110 104 188 179 114z
m2074 3 c12 -11 22 -24 22 -29 0 -13 -29 -9 -55 8 -29 19 -73 12 -82 -12 -7
-19 8 -30 62 -45 22 -6 48 -18 58 -26 24 -22 22 -68 -5 -93 -45 -42 -173 -14
-155 34 6 15 10 15 46 -6 33 -19 43 -21 66 -10 42 19 28 44 -35 65 -82 27
-104 71 -57 114 39 37 94 37 135 0z m-5545 2 c57 -44 57 -154 0 -198 -35 -28
-101 -28 -136 0 -37 29 -54 88 -38 138 15 53 52 81 106 81 28 0 51 -7 68 -21z
m121 5 c6 -16 8 -16 24 0 21 18 74 21 103 6 64 -35 64 -185 0 -220 -30 -16
-87 -12 -102 7 -12 14 -15 10 -19 -38 -4 -46 -8 -54 -25 -54 -19 0 -20 8 -23
145 -1 79 0 150 2 157 7 18 33 16 40 -3z m380 5 c25 -12 43 -44 48 -89 3 -25
2 -25 -79 -28 -74 -2 -83 -5 -83 -22 0 -10 12 -28 27 -39 27 -22 54 -21 84 5
20 18 49 18 49 0 0 -28 -50 -56 -100 -56 -41 0 -52 4 -73 30 -32 38 -41 78
-27 129 18 69 87 100 154 70z m142 0 c4 -8 9 -8 17 0 12 12 60 15 70 5 13 -13
-7 -34 -33 -34 -41 0 -49 -17 -52 -110 -3 -77 -5 -85 -23 -85 -19 0 -20 8 -23
104 -1 58 0 111 2 118 6 16 32 17 42 2z m285 -8 c22 -17 24 -28 27 -120 4 -96
3 -101 -16 -101 -11 0 -22 5 -24 11 -3 9 -9 9 -25 0 -55 -29 -133 4 -133 56 0
36 42 73 84 73 47 0 66 9 66 31 0 31 -42 44 -81 25 -59 -29 -81 -14 -33 23 35
27 103 28 135 2z m277 -104 c3 -112 2 -117 -18 -117 -19 0 -20 6 -20 121 0
109 2 120 18 117 15 -3 17 -18 20 -121z m243 94 c24 -25 29 -37 29 -81 0 -56
-20 -104 -49 -120 -33 -17 -96 -12 -124 11 -37 29 -54 88 -38 138 16 54 52 81
108 81 36 0 50 -6 74 -29z m124 19 c4 -7 12 -7 25 0 33 18 88 12 110 -12 17
-19 20 -35 20 -120 0 -91 -1 -98 -20 -98 -18 0 -20 7 -20 85 0 72 -3 88 -21
106 -14 14 -27 18 -42 14 -38 -12 -47 -34 -47 -123 0 -81 -1 -83 -22 -80 -22
3 -23 8 -26 107 -1 58 0 111 2 118 6 15 32 17 41 3z m356 -20 c4 -14 15 -52
25 -85 l17 -60 27 85 c21 67 31 85 46 85 14 0 24 -18 45 -85 15 -47 29 -78 32
-70 3 8 13 46 23 83 10 38 24 71 31 74 31 12 30 -1 -23 -185 -13 -44 -19 -53
-36 -50 -15 2 -26 22 -47 88 l-27 85 -23 -75 c-12 -41 -24 -81 -26 -87 -4 -11
-45 -20 -45 -10 0 1 -13 49 -30 107 -16 58 -30 111 -30 118 0 23 33 8 41 -18z
m354 -90 c0 -101 -2 -115 -17 -118 -16 -3 -18 8 -18 118 0 110 2 121 18 118
15 -3 17 -17 17 -118z m2323 -3 c2 -110 2 -117 -17 -117 -11 0 -21 4 -23 10
-1 5 -2 59 0 120 3 98 5 111 20 108 15 -3 17 -20 20 -121z m97 113 c4 -7 12
-7 25 0 36 20 87 12 109 -16 18 -23 21 -41 21 -120 0 -87 -1 -94 -20 -94 -18
0 -20 7 -20 85 0 72 -3 88 -20 105 -24 24 -39 25 -66 6 -15 -12 -20 -30 -24
-103 -5 -80 -7 -88 -25 -88 -19 0 -20 8 -23 104 -1 58 0 111 2 118 6 15 32 17
41 3z m376 -3 c22 -16 36 -46 40 -82 l4 -30 -83 -3 c-78 -3 -83 -4 -80 -24 2
-12 16 -30 31 -42 l28 -21 39 23 c21 12 44 22 49 22 20 0 11 -29 -15 -49 -39
-30 -113 -29 -143 3 -50 53 -47 154 6 195 29 24 98 28 124 8z m257 -110 c3
-112 2 -117 -18 -117 -19 0 -20 6 -20 121 0 109 2 120 18 117 15 -3 17 -18 20
-121z m70 -342 c5 -22 -18 -37 -35 -23 -17 13 -17 35 0 41 19 8 32 2 35 -18z
m732 -5 c0 -10 -6 -20 -12 -23 -21 -7 -38 4 -38 23 0 10 6 20 13 23 20 7 37
-4 37 -23z m-4620 -145 c0 -156 -1 -165 -19 -165 -11 0 -21 5 -23 11 -3 9 -9
9 -25 0 -87 -46 -172 42 -143 149 16 61 43 83 93 78 23 -3 50 -8 60 -12 15 -7
17 -2 17 48 0 49 2 56 20 56 19 0 20 -7 20 -165z m520 0 c0 -156 -1 -165 -19
-165 -11 0 -21 5 -23 11 -3 9 -9 9 -25 0 -41 -21 -89 -14 -117 19 -35 42 -42
91 -22 144 23 60 70 82 125 60 18 -8 35 -14 37 -14 2 0 4 25 4 55 0 48 2 55
20 55 19 0 20 -7 20 -165z m1010 0 c0 -156 -1 -165 -19 -165 -11 0 -21 5 -23
11 -3 9 -9 9 -25 0 -87 -46 -172 42 -143 148 16 59 45 83 95 78 22 -2 48 -7
58 -11 15 -7 17 -2 17 48 0 49 2 56 20 56 19 0 20 -7 20 -165z m390 110 c0
-51 10 -69 25 -45 3 6 24 10 46 10 70 0 93 -45 87 -170 -2 -50 -7 -65 -19 -68
-14 -3 -18 12 -24 93 -6 89 -9 97 -31 105 -29 11 -69 -2 -78 -25 -3 -9 -6 -52
-6 -96 0 -72 -2 -79 -20 -79 -19 0 -20 7 -20 165 0 158 1 165 20 165 18 0 20
-7 20 -55z m-150 -5 c0 -25 4 -30 24 -30 14 0 27 -4 30 -9 8 -12 -18 -32 -35
-29 -11 2 -15 -16 -17 -74 -3 -77 -3 -77 28 -93 36 -19 31 -35 -10 -35 -45 0
-60 31 -60 123 0 70 -2 79 -20 84 -11 3 -20 12 -20 19 0 8 9 14 20 14 16 0 20
7 20 30 0 23 4 30 20 30 16 0 20 -7 20 -30z m1972 3 c2 -19 10 -29 26 -33 13
-3 23 -9 23 -15 0 -5 -10 -12 -23 -15 -20 -5 -23 -13 -26 -65 -4 -78 2 -99 33
-113 32 -15 24 -32 -15 -32 -45 0 -60 31 -60 123 0 70 -2 79 -20 84 -11 3 -20
12 -20 19 0 8 9 14 20 14 16 0 20 7 20 30 0 23 5 30 19 30 14 0 21 -8 23 -27z
m-342 -54 c0 -14 -7 -19 -29 -19 -16 0 -33 -6 -39 -13 -6 -7 -12 -51 -14 -97
-3 -77 -5 -85 -23 -85 -19 0 -20 8 -23 113 -2 96 0 113 14 119 9 3 20 0 24 -7
6 -10 12 -11 22 -3 15 12 49 21 61 16 4 -2 7 -13 7 -24z m975 9 c18 -22 25
-62 25 -137 0 -84 -1 -91 -20 -91 -18 0 -20 7 -20 85 0 72 -3 88 -20 105 -24
24 -39 25 -66 6 -15 -12 -20 -30 -24 -103 -5 -80 -7 -88 -25 -88 -19 0 -20 8
-23 113 -2 96 0 113 14 119 9 3 20 0 24 -7 6 -10 12 -11 22 -3 19 16 49 20 82
11 16 -4 30 -9 31 -10z m-5913 -5 c37 -33 14 -58 -26 -28 -26 19 -51 19 -71
-1 -21 -22 -5 -41 49 -55 52 -14 76 -35 76 -67 0 -44 -36 -72 -92 -72 -39 0
-54 5 -74 25 -25 25 -25 45 0 45 7 0 21 -9 31 -20 21 -23 53 -26 80 -6 28 20
12 44 -39 57 -81 20 -111 75 -64 119 28 25 103 28 130 3z m108 -68 c0 -72 3
-88 21 -106 23 -23 54 -19 82 13 13 16 17 38 17 99 0 72 2 79 20 79 19 0 20
-7 20 -120 0 -113 -1 -120 -20 -120 -12 0 -20 7 -20 17 0 15 -1 15 -18 0 -27
-25 -94 -22 -118 4 -15 17 -20 40 -22 120 -4 95 -3 99 17 99 20 0 21 -5 21
-85z m377 63 c13 -12 23 -25 23 -30 0 -13 -33 -9 -54 7 -26 20 -51 19 -71 -1
-22 -22 -5 -39 54 -57 58 -16 88 -55 70 -88 -19 -37 -40 -48 -89 -49 -51 0
-90 22 -90 51 0 25 22 24 45 -1 21 -23 53 -26 80 -6 28 20 12 44 -40 58 -82
22 -110 74 -63 118 31 28 104 28 135 -2z m117 6 c6 -16 8 -16 24 0 27 24 86
20 118 -7 52 -45 42 -176 -15 -207 -30 -16 -87 -12 -102 7 -12 14 -15 10 -19
-38 -4 -46 -8 -54 -25 -54 -19 0 -20 7 -22 150 -1 82 1 153 3 157 9 14 32 9
38 -8z m377 3 c24 -18 39 -52 39 -86 l0 -31 -80 0 c-68 0 -80 -2 -80 -17 0
-21 39 -63 58 -63 8 0 30 10 49 21 46 29 67 12 30 -25 -34 -34 -101 -36 -140
-5 -57 44 -57 154 0 198 29 24 98 28 124 8z m144 3 c4 -7 12 -7 25 0 22 12 80
13 96 2 25 -16 34 -55 34 -141 0 -84 -1 -91 -20 -91 -18 0 -20 7 -20 83 0 87
-9 110 -46 121 -42 13 -59 -15 -64 -111 -5 -80 -7 -88 -25 -88 -19 0 -20 8
-23 104 -1 58 0 111 2 118 6 15 32 17 41 3z m637 -4 c23 -17 49 -81 42 -100
-5 -13 -23 -16 -85 -16 -88 0 -100 -12 -57 -57 27 -28 41 -29 85 -2 27 17 37
19 46 10 9 -10 6 -18 -16 -37 -36 -31 -103 -33 -140 -4 -53 42 -58 134 -10
191 21 25 32 29 71 29 26 0 55 -7 64 -14z m769 -5 c20 -16 23 -29 27 -115 4
-84 2 -97 -13 -102 -9 -4 -20 -1 -25 6 -6 9 -13 9 -28 1 -54 -29 -132 4 -132
56 0 37 42 73 87 74 56 1 72 10 62 36 -11 30 -43 37 -81 19 -58 -30 -79 -14
-32 23 35 27 103 28 135 2z m125 8 c4 -8 9 -8 17 0 12 12 86 15 103 3 25 -16
34 -55 34 -141 0 -84 -1 -91 -20 -91 -18 0 -20 7 -20 85 0 72 -3 88 -20 105
-24 24 -39 25 -66 6 -15 -12 -20 -30 -24 -103 -5 -80 -7 -88 -25 -88 -19 0
-20 8 -23 104 -1 58 0 111 2 118 6 16 32 17 42 2z m1175 -2 c24 -18 39 -52 39
-86 l0 -31 -75 0 c-87 0 -103 -14 -65 -56 29 -29 49 -30 84 -3 26 20 56 20 56
0 0 -5 -12 -19 -26 -30 -36 -28 -102 -28 -137 0 -57 44 -57 154 0 198 29 24
98 28 124 8z m385 -10 c52 -45 42 -176 -15 -207 -33 -17 -96 -12 -124 11 -35
27 -51 87 -37 138 14 53 51 81 106 81 31 0 51 -7 70 -23z m132 7 c8 -14 10
-14 21 0 21 25 85 20 117 -8 24 -20 28 -32 32 -89 4 -63 3 -68 -26 -97 -24
-23 -39 -30 -70 -30 -25 0 -45 6 -53 17 -12 14 -15 10 -19 -38 -4 -46 -8 -54
-25 -54 -19 0 -20 8 -23 145 -1 79 0 150 2 157 7 18 33 16 44 -3z m380 -4 c22
-20 45 -87 36 -102 -3 -4 -41 -8 -85 -8 -77 0 -80 -1 -77 -21 2 -12 16 -31 31
-43 l28 -21 41 24 c30 17 43 20 52 11 20 -20 -38 -60 -88 -60 -55 0 -92 28
-106 81 -14 51 2 111 37 138 34 28 102 28 131 1z m413 1 c20 -16 23 -29 27
-115 4 -84 2 -97 -13 -102 -9 -4 -20 -1 -25 6 -6 9 -13 9 -28 1 -54 -29 -132
4 -132 56 0 38 46 73 94 73 55 0 71 11 57 38 -16 29 -45 36 -80 18 -58 -31
-82 -14 -35 23 35 27 103 28 135 2z m289 -101 c0 -113 -1 -120 -20 -120 -19 0
-20 7 -20 120 0 113 1 120 20 120 19 0 20 -7 20 -120z m231 91 c26 -26 29 -36
29 -91 0 -55 -3 -65 -29 -91 -24 -23 -38 -29 -74 -29 -56 0 -93 28 -107 81
-24 87 25 159 107 159 36 0 50 -6 74 -29z m494 -91 c0 -101 -2 -115 -17 -118
-16 -3 -18 8 -18 118 0 110 2 121 18 118 15 -3 17 -17 17 -118z m222 98 c13
-12 23 -25 23 -30 0 -13 -29 -9 -55 8 -34 22 -75 11 -75 -20 0 -20 8 -26 48
-36 26 -6 55 -19 65 -27 24 -22 22 -68 -5 -93 -43 -40 -158 -18 -158 31 0 25
22 24 45 -1 21 -23 53 -26 80 -6 28 20 12 42 -47 61 -58 19 -78 37 -78 72 0
59 108 88 157 41z m-4197 -185 c0 -40 -28 -108 -45 -111 -14 -3 -16 1 -11 25
3 15 8 45 12 66 5 27 11 37 25 37 11 0 19 -7 19 -17z m-1522 -246 c2 -12 -3
-17 -17 -17 -22 0 -48 -37 -34 -50 4 -4 17 -10 27 -12 26 -4 23 -22 -6 -28
-22 -6 -23 -11 -26 -108 -2 -94 -4 -102 -22 -102 -19 0 -20 7 -20 101 0 92 -2
101 -20 106 -24 6 -27 30 -4 35 9 2 22 19 28 38 17 52 86 80 94 37z m1532 -7
c0 -10 -6 -20 -12 -23 -21 -7 -38 4 -38 23 0 10 6 20 13 23 20 7 37 -4 37 -23z
m1370 0 c0 -22 -24 -32 -39 -17 -15 15 -14 34 2 40 20 7 37 -4 37 -23z m3648
5 c4 -20 -15 -36 -35 -28 -17 6 -17 40 0 46 19 8 32 2 35 -18z m-5248 -150 c0
-158 -1 -165 -20 -165 -11 0 -20 7 -20 16 0 14 -2 14 -22 0 -36 -26 -90 -20
-120 12 -71 75 -31 212 61 212 20 0 47 -7 59 -16 l22 -15 0 60 c0 54 2 61 20
61 19 0 20 -7 20 -165z m860 104 c0 -55 1 -59 16 -45 17 18 76 21 104 6 27
-14 40 -64 40 -151 0 -72 -2 -79 -20 -79 -18 0 -20 7 -20 69 0 113 -26 153
-85 131 -30 -11 -35 -28 -35 -121 0 -72 -2 -79 -20 -79 -19 0 -20 7 -20 165 0
158 1 165 20 165 18 0 20 -7 20 -61z m630 -104 c0 -158 -1 -165 -20 -165 -19
0 -20 7 -20 165 0 158 1 165 20 165 19 0 20 -7 20 -165z m470 75 c0 -49 4 -90
8 -90 4 0 27 20 51 45 24 25 51 45 62 45 28 0 24 -9 -26 -60 l-45 -46 50 -59
c27 -33 50 -63 50 -67 0 -5 -10 -8 -23 -8 -16 0 -34 15 -60 50 -21 28 -44 50
-52 50 -11 0 -15 -13 -15 -50 0 -43 -3 -50 -20 -50 -19 0 -20 7 -20 165 0 158
1 165 20 165 19 0 20 -7 20 -90z m360 28 c0 -59 1 -60 18 -45 11 10 35 17 59
17 34 0 46 -6 67 -31 22 -25 26 -41 26 -89 0 -48 -4 -64 -26 -89 -21 -25 -33
-31 -67 -31 -24 0 -48 7 -59 17 -17 15 -18 15 -18 0 0 -10 -8 -17 -20 -17 -19
0 -20 7 -20 165 0 158 1 165 20 165 18 0 20 -7 20 -62z m2060 32 c80 -57 76
-233 -6 -286 -39 -26 -125 -25 -161 2 -77 57 -86 214 -15 277 45 40 131 44
182 7z m640 -60 c0 -49 4 -90 8 -90 4 0 28 20 52 45 39 40 80 59 80 37 0 -4
-20 -28 -45 -52 l-44 -43 49 -63 c28 -34 50 -65 50 -68 0 -3 -10 -6 -22 -6
-15 1 -38 19 -67 55 -24 30 -47 52 -52 49 -5 -3 -9 -27 -9 -55 0 -42 -3 -49
-20 -49 -19 0 -20 7 -20 165 0 158 1 165 20 165 19 0 20 -7 20 -90z m-4300 30
c0 -25 4 -30 24 -30 25 0 43 -16 32 -27 -3 -3 -16 -6 -28 -7 -22 -1 -23 -6
-26 -79 l-3 -78 31 -11 c38 -13 34 -32 -7 -36 -47 -5 -63 25 -63 121 0 70 -2
79 -20 84 -11 3 -20 12 -20 19 0 8 9 14 20 14 16 0 20 7 20 30 0 23 4 30 20
30 16 0 20 -7 20 -30z m2132 3 c2 -20 9 -29 26 -31 12 -2 22 -10 22 -17 0 -7
-10 -15 -22 -17 -21 -3 -23 -9 -26 -81 -3 -75 -2 -77 23 -87 35 -13 33 -40 -4
-40 -44 0 -55 23 -61 119 -4 67 -8 86 -20 86 -8 0 -16 8 -18 18 -2 12 3 17 17
17 17 0 21 6 21 30 0 23 5 30 19 30 14 0 21 -8 23 -27z m-4914 -49 c8 -14 10
-14 21 0 8 10 29 16 53 16 30 0 46 -7 69 -29 26 -26 29 -36 29 -91 0 -55 -3
-65 -29 -91 -23 -22 -39 -29 -70 -29 -22 0 -46 7 -55 15 -13 14 -15 10 -18
-37 -3 -45 -6 -53 -23 -53 -19 0 -20 8 -23 145 -1 79 0 150 2 157 7 18 33 16
44 -3z m380 -4 c22 -20 45 -87 36 -102 -3 -4 -41 -8 -85 -8 -70 0 -79 -2 -79
-18 0 -20 24 -45 51 -55 10 -3 34 3 54 14 28 15 40 18 49 9 8 -8 4 -18 -17
-36 -37 -31 -103 -33 -140 -3 -58 45 -58 153 0 198 34 28 102 28 131 1z m125
8 c4 -10 7 -10 18 0 7 6 26 12 41 12 21 0 28 -5 28 -20 0 -15 -7 -20 -29 -20
-17 0 -33 -6 -38 -12 -4 -7 -10 -51 -13 -98 -5 -77 -7 -85 -25 -85 -19 0 -20
8 -23 104 -1 58 0 111 2 118 7 17 33 17 39 1z m460 -8 c55 -43 58 -135 7 -190
-24 -25 -36 -30 -77 -30 -41 0 -54 5 -75 28 -33 33 -44 89 -28 136 16 49 53
76 105 76 27 0 51 -7 68 -20z m123 9 c4 -8 9 -8 17 0 6 6 24 11 39 11 21 0 28
-5 28 -20 0 -15 -7 -20 -28 -20 -45 0 -52 -16 -52 -113 0 -86 -1 -88 -22 -85
-22 3 -23 9 -26 88 -2 47 0 100 3 118 6 31 27 43 41 21z m167 -1 c4 -10 7 -10
18 0 18 17 79 15 100 -4 16 -15 20 -15 41 0 31 22 84 20 108 -4 17 -17 20 -33
20 -120 0 -93 -1 -100 -20 -100 -17 0 -20 8 -22 91 -3 79 -6 93 -23 105 -16
11 -25 11 -45 1 -24 -12 -25 -18 -28 -105 -2 -84 -5 -92 -22 -92 -18 0 -20 7
-20 85 0 72 -3 88 -20 105 -24 24 -32 25 -59 3 -17 -15 -21 -31 -23 -103 -3
-77 -5 -85 -23 -85 -19 0 -20 8 -23 104 -1 58 0 111 2 118 7 17 33 17 39 1z
m508 -1 c22 -16 36 -46 40 -82 l4 -30 -82 -3 c-69 -2 -83 -6 -83 -19 0 -47 67
-68 116 -37 20 13 28 14 37 5 9 -10 6 -18 -16 -37 -37 -31 -103 -33 -140 -3
-57 44 -57 154 0 198 29 24 98 28 124 8z m527 -110 c3 -118 3 -118 -20 -115
-22 3 -23 7 -26 107 -3 117 0 134 25 129 16 -3 18 -18 21 -121z m97 113 c4 -7
12 -7 25 0 32 17 82 12 107 -12 21 -20 23 -30 23 -120 0 -91 -1 -98 -20 -98
-18 0 -20 7 -20 85 0 72 -3 88 -21 106 -20 20 -51 19 -74 -3 -5 -5 -12 -48
-15 -96 -5 -79 -7 -87 -25 -87 -19 0 -20 8 -23 104 -1 58 0 111 2 118 6 15 32
17 41 3z m899 -1 c25 -12 43 -44 48 -89 3 -25 2 -25 -79 -28 -72 -2 -83 -5
-83 -21 0 -23 36 -56 64 -56 11 -1 32 7 45 17 49 37 73 7 25 -31 -36 -28 -102
-28 -137 0 -15 11 -31 38 -38 62 -28 106 59 189 155 146z m374 -112 c2 -110 2
-117 -17 -117 -11 0 -21 4 -23 10 -1 5 -2 59 0 120 3 98 5 111 20 108 15 -3
17 -20 20 -121z m97 113 c4 -7 12 -7 25 0 36 20 87 12 109 -16 18 -23 21 -41
21 -120 0 -87 -1 -94 -20 -94 -18 0 -20 7 -20 85 0 72 -3 88 -20 105 -24 24
-39 25 -66 6 -15 -12 -20 -30 -24 -103 -5 -80 -7 -88 -25 -88 -19 0 -20 8 -23
104 -1 58 0 111 2 118 6 15 32 17 41 3z m1014 -14 c22 -24 44 -90 33 -100 -3
-4 -41 -6 -84 -6 -69 0 -78 -2 -78 -18 0 -22 33 -55 58 -58 9 -2 32 6 50 18
26 16 36 18 45 9 9 -10 6 -18 -16 -37 -21 -18 -40 -24 -77 -24 -41 0 -52 4
-73 29 -48 57 -43 149 10 191 37 29 103 27 132 -4z m272 -41 c9 -33 20 -73 24
-90 6 -27 10 -21 34 60 21 73 30 90 46 90 15 0 24 -16 45 -85 14 -47 28 -80
32 -75 3 6 13 43 23 83 10 41 24 76 32 79 32 13 30 -9 -19 -170 -17 -58 -23
-68 -41 -65 -16 2 -25 20 -43 82 -13 44 -26 81 -28 83 -2 2 -13 -29 -25 -69
-12 -40 -24 -79 -26 -85 -6 -19 -43 -16 -49 5 -29 95 -56 197 -56 209 0 8 7
13 17 11 11 -2 23 -23 34 -63z m456 45 c24 -22 48 -84 38 -100 -3 -5 -42 -10
-86 -10 -85 0 -93 -6 -63 -48 18 -27 64 -29 100 -6 20 13 28 14 37 5 21 -22
-36 -61 -87 -61 -55 0 -91 28 -107 81 -16 50 1 109 38 138 34 28 102 28 130 1z
m244 7 c22 -16 36 -46 40 -82 l4 -30 -83 -3 c-78 -3 -83 -4 -80 -24 2 -12 16
-30 31 -42 l28 -21 41 24 c30 17 43 20 52 11 8 -9 4 -17 -17 -36 -39 -34 -114
-34 -146 0 -50 53 -47 154 6 195 29 24 98 28 124 8z m131 2 c3 -9 9 -9 25 0
24 12 82 15 99 3 25 -16 34 -55 34 -141 0 -84 -1 -91 -20 -91 -18 0 -20 7 -20
89 0 91 -4 102 -46 115 -42 13 -59 -15 -64 -111 -5 -80 -7 -88 -25 -88 -19 0
-20 8 -23 104 -1 58 0 111 2 118 7 16 33 17 38 2z m858 -6 c0 -9 -27 -52 -60
-95 -33 -42 -60 -79 -60 -82 0 -3 26 -6 57 -8 46 -2 59 -7 61 -20 3 -16 -6
-18 -87 -18 -113 0 -114 5 -26 114 62 78 70 99 37 95 -56 -5 -102 2 -102 16 0
12 17 15 90 15 78 0 90 -2 90 -17z m225 -8 c23 -22 25 -32 25 -115 0 -74 -3
-92 -16 -97 -9 -3 -19 0 -24 7 -6 9 -13 9 -28 1 -34 -18 -83 -13 -109 11 -30
28 -29 63 2 93 19 20 34 25 75 25 47 0 50 2 50 25 0 14 -8 29 -20 35 -21 11
-70 4 -70 -11 0 -5 -11 -9 -25 -9 -32 0 -32 13 1 39 39 31 107 29 139 -4z
m353 -98 c3 -112 2 -117 -18 -117 -19 0 -20 6 -20 121 0 109 2 120 18 117 15
-3 17 -18 20 -121z m-5888 -347 c0 -22 -24 -32 -39 -17 -15 15 -14 34 2 40 20
7 37 -4 37 -23z m800 0 c0 -22 -24 -32 -39 -17 -15 15 -14 34 2 40 20 7 37 -4
37 -23z m1570 0 c0 -22 -24 -32 -39 -17 -15 15 -14 34 2 40 20 7 37 -4 37 -23z
m-3140 -145 c0 -158 -1 -165 -20 -165 -11 0 -20 7 -20 16 0 14 -2 14 -22 0
-34 -24 -90 -20 -117 8 -48 51 -47 151 1 196 23 21 102 28 113 10 15 -24 25
-6 25 45 0 48 2 55 20 55 19 0 20 -7 20 -165z m383 125 c15 -16 27 -35 27 -40
0 -19 -42 -10 -60 12 -32 40 -120 23 -120 -23 0 -23 29 -41 96 -63 29 -9 59
-25 68 -35 21 -23 24 -68 7 -100 -14 -25 -67 -51 -106 -51 -66 0 -137 62 -107
92 9 9 19 5 42 -17 36 -34 88 -39 120 -10 40 36 18 66 -70 91 -32 9 -66 25
-75 35 -21 22 -23 82 -4 105 43 52 137 55 182 4z m127 -22 c0 -59 1 -60 18
-45 19 17 67 22 97 11 30 -12 45 -60 45 -149 0 -76 -2 -85 -19 -85 -20 0 -31
48 -31 134 0 54 -11 69 -51 69 -48 0 -59 -23 -59 -120 0 -76 -2 -83 -20 -83
-19 0 -20 7 -20 165 0 158 1 165 20 165 18 0 20 -7 20 -62z m830 -28 c0 -49 4
-90 8 -90 4 0 28 20 52 45 39 40 80 59 80 37 0 -4 -20 -28 -45 -52 l-44 -43
49 -63 c28 -34 50 -65 50 -68 0 -3 -10 -6 -22 -6 -16 0 -36 17 -66 55 -23 31
-47 53 -52 50 -6 -3 -10 -28 -10 -56 0 -42 -3 -49 -20 -49 -19 0 -20 7 -20
165 0 158 1 165 20 165 19 0 20 -7 20 -90z m340 35 c0 -51 10 -69 25 -45 3 6
26 10 50 10 36 0 48 -5 69 -31 22 -25 26 -41 26 -89 0 -48 -4 -64 -26 -89 -21
-26 -33 -31 -68 -31 -23 0 -48 6 -55 13 -11 10 -14 10 -18 0 -3 -7 -13 -13
-24 -13 -18 0 -19 9 -19 165 0 158 1 165 20 165 18 0 20 -7 20 -55z m750 40
c27 -14 60 -51 60 -67 0 -17 -43 -7 -60 14 -32 40 -120 23 -120 -23 0 -23 29
-41 96 -63 61 -20 85 -43 86 -84 2 -67 -67 -113 -147 -98 -43 8 -85 46 -85 76
0 28 17 25 58 -11 28 -25 41 -30 65 -25 34 7 67 32 67 52 0 23 -30 43 -90 60
-70 20 -92 40 -92 89 0 41 15 63 57 81 40 17 70 17 105 -1z m1505 -2 c-41 -99
-47 -219 -15 -314 24 -70 18 -87 -15 -45 -56 70 -66 224 -22 321 16 34 32 55
43 55 11 0 14 -5 9 -17z m105 -45 c0 -59 1 -61 19 -44 25 22 73 23 105 3 31
-21 43 -43 47 -82 4 -59 -1 -84 -27 -114 -21 -26 -33 -31 -69 -31 -26 0 -47 6
-56 16 -11 14 -13 14 -21 0 -5 -9 -16 -16 -23 -16 -13 0 -15 28 -15 165 0 158
1 165 20 165 18 0 20 -7 20 -62z m-1440 2 c0 -25 4 -30 23 -30 13 0 27 -3 30
-7 11 -10 -13 -33 -34 -33 -17 0 -19 -8 -19 -67 0 -72 4 -82 35 -99 29 -16 25
-29 -12 -32 -48 -5 -63 25 -63 121 0 70 -2 79 -20 84 -11 3 -20 12 -20 19 0 8
9 14 20 14 16 0 20 7 20 30 0 23 4 30 20 30 16 0 20 -7 20 -30z m390 1 c0 -24
5 -30 25 -33 32 -4 34 -21 3 -28 -21 -5 -23 -12 -26 -82 -3 -77 -3 -77 28 -93
35 -18 31 -35 -7 -35 -50 0 -63 24 -63 117 0 76 -2 85 -20 90 -11 3 -20 12
-20 19 0 8 9 14 20 14 16 0 20 7 20 30 0 23 4 30 20 30 15 0 20 -7 20 -29z
m1585 -1 c0 -18 6 -26 23 -28 21 -3 32 -31 12 -33 -5 -1 -16 -2 -22 -3 -9 -1
-14 -22 -16 -61 -4 -75 3 -102 28 -110 30 -9 25 -35 -7 -35 -50 0 -63 24 -63
117 0 76 -2 85 -20 90 -11 3 -20 11 -20 18 0 7 9 15 20 18 14 3 20 14 20 32 0
22 4 26 22 23 17 -2 23 -10 23 -28z m-1718 -52 c14 -16 19 -41 21 -119 4 -93
3 -99 -16 -99 -11 0 -23 7 -26 16 -5 14 -7 14 -22 0 -23 -24 -83 -20 -111 6
-30 28 -29 63 2 93 19 20 34 25 75 25 47 0 50 2 50 25 0 14 -8 29 -20 35 -21
11 -70 4 -70 -11 0 -5 -11 -9 -25 -9 -30 0 -32 11 -6 34 41 37 116 39 148 4z
m1578 2 c5 0 24 -56 27 -80 3 -25 2 -25 -80 -28 -78 -3 -83 -4 -80 -24 2 -12
15 -30 30 -41 l27 -20 42 22 c31 16 45 19 53 11 8 -8 4 -18 -17 -36 -21 -18
-40 -24 -77 -24 -41 0 -52 4 -73 30 -32 38 -41 78 -28 128 19 68 78 101 140
76 18 -8 35 -14 36 -14z m-4974 1 c22 -17 24 -29 27 -115 3 -83 2 -97 -13
-102 -9 -4 -20 -1 -25 6 -6 9 -13 9 -28 1 -54 -29 -132 4 -132 55 0 41 33 68
91 74 46 4 54 8 57 27 2 13 -4 25 -15 31 -20 11 -73 4 -73 -9 0 -5 -11 -9 -25
-9 -32 0 -32 13 1 39 35 27 103 28 135 2z m124 9 c4 -7 12 -7 25 0 32 17 82
12 107 -12 21 -20 23 -30 23 -120 0 -91 -1 -98 -20 -98 -19 0 -20 7 -20 89 0
82 -2 91 -22 105 -28 20 -39 20 -64 2 -15 -12 -20 -30 -24 -103 -5 -80 -7 -88
-25 -88 -19 0 -20 8 -23 104 -1 58 0 111 2 118 6 15 32 17 41 3z m1180 -110
c0 -101 -2 -115 -17 -118 -16 -3 -18 8 -18 118 0 110 2 121 18 118 15 -3 17
-17 17 -118z m98 108 c4 -10 7 -10 18 0 7 6 32 12 55 12 34 0 47 -5 63 -26 18
-23 21 -41 21 -120 0 -87 -1 -94 -20 -94 -18 0 -20 7 -20 85 0 72 -3 88 -21
106 -20 20 -51 19 -74 -3 -5 -5 -12 -48 -15 -96 -5 -79 -7 -87 -25 -87 -19 0
-20 8 -23 104 -1 58 0 111 2 118 7 17 33 17 39 1z m705 -111 c3 -118 3 -118
-20 -115 -22 3 -23 8 -26 98 -3 113 2 143 26 138 15 -3 17 -19 20 -121z m498
102 c16 -18 19 -37 19 -117 0 -84 -2 -97 -17 -100 -11 -2 -18 3 -18 13 0 15
-2 15 -22 1 -33 -23 -87 -20 -115 6 -50 47 -9 118 69 118 55 0 68 9 57 37 -11
30 -43 37 -81 19 -58 -30 -79 -14 -32 23 37 29 114 29 140 0z m1069 -99 c0
-101 -2 -115 -17 -118 -16 -3 -18 8 -18 118 0 110 2 121 18 118 15 -3 17 -17
17 -118z m231 97 c52 -45 42 -176 -15 -207 -33 -17 -96 -12 -124 11 -57 44
-57 154 0 198 37 30 103 28 139 -2z m129 13 c4 -7 12 -7 25 0 32 17 82 12 107
-12 21 -20 23 -30 23 -120 0 -91 -1 -98 -20 -98 -18 0 -20 7 -20 85 0 72 -3
88 -20 105 -24 24 -39 25 -66 6 -15 -12 -20 -30 -24 -103 -5 -80 -7 -88 -25
-88 -19 0 -20 8 -23 104 -1 58 0 111 2 118 6 15 32 17 41 3z m1219 -65 c27
-100 26 -98 31 -93 3 3 15 40 27 84 19 65 27 79 43 79 16 0 24 -16 46 -90 l27
-90 10 40 c6 22 16 62 23 88 6 27 18 51 26 54 32 13 30 -9 -19 -170 -17 -58
-23 -68 -41 -65 -16 2 -25 20 -43 82 -13 44 -25 81 -28 83 -2 2 -15 -35 -30
-82 -22 -69 -30 -85 -46 -85 -11 0 -20 1 -20 3 0 1 -13 49 -30 107 -35 122
-36 133 -13 128 13 -2 24 -24 37 -73z m453 55 c24 -22 48 -84 38 -100 -3 -5
-42 -10 -86 -10 -71 0 -79 -2 -79 -19 0 -21 44 -61 67 -61 7 0 27 10 43 22 24
18 33 19 43 9 21 -22 -35 -61 -87 -61 -55 0 -92 28 -106 81 -14 51 2 111 37
138 34 28 102 28 130 1z m244 7 c22 -16 36 -46 40 -82 l4 -30 -82 -3 c-74 -2
-83 -5 -83 -22 0 -10 11 -27 25 -38 27 -21 53 -20 93 6 18 12 26 12 35 3 9
-10 6 -18 -16 -37 -21 -18 -40 -24 -77 -24 -41 0 -52 4 -73 29 -48 57 -43 149
10 191 29 23 98 27 124 7z m132 1 c4 -10 7 -10 18 0 14 13 87 16 105 4 25 -16
34 -55 34 -141 0 -84 -1 -91 -20 -91 -18 0 -20 7 -20 85 0 72 -3 88 -20 105
-24 24 -39 25 -66 6 -15 -12 -20 -30 -24 -103 -5 -80 -7 -88 -25 -88 -19 0
-20 8 -23 104 -1 58 0 111 2 118 7 17 33 17 39 1z m-4313 -98 c0 -18 -7 -20
-75 -20 -56 0 -75 3 -75 13 0 23 11 27 82 27 61 0 68 -2 68 -20z m4602 -334
c-2 -13 6 -16 43 -16 l46 0 -3 -72 -3 -73 -37 -3 c-42 -4 -45 -9 -24 -38 14
-19 15 -19 38 4 44 41 55 16 12 -29 l-26 -27 37 -37 c29 -28 35 -39 25 -48 -9
-9 -21 -2 -51 33 -21 25 -39 48 -39 53 0 4 -4 7 -8 7 -5 0 -7 -13 -4 -30 2
-16 1 -41 -2 -55 -5 -21 -12 -25 -41 -25 -25 0 -35 4 -35 16 0 10 7 14 23 12
21 -3 22 0 25 80 l3 82 -41 0 -40 0 0 75 0 75 34 0 c26 0 35 5 39 21 7 24 33
20 29 -5z m-172 3 c0 -7 -9 -27 -21 -45 -19 -31 -19 -54 -1 -54 4 0 16 14 25
30 10 17 22 30 28 30 17 0 9 -27 -21 -68 -35 -49 -38 -62 -10 -55 11 3 20 14
20 24 0 33 19 20 31 -21 11 -36 15 -40 45 -40 43 0 49 -12 25 -57 -28 -56 -70
-98 -83 -85 -9 9 -6 16 8 29 23 21 54 64 54 75 0 5 -9 8 -20 8 -10 0 -24 9
-30 20 -6 11 -20 20 -30 20 -18 0 -20 -7 -20 -90 0 -72 -3 -90 -15 -90 -11 0
-15 19 -17 87 l-3 87 -29 1 c-16 0 -31 6 -33 13 -3 7 4 12 16 12 11 0 25 9 32
21 9 18 7 25 -15 48 -29 31 -34 53 -10 49 10 -2 23 9 33 29 15 31 41 45 41 22z
m-5260 -29 c0 -22 -24 -32 -39 -17 -15 15 -14 34 2 40 20 7 37 -4 37 -23z
m1648 5 c5 -22 -18 -37 -35 -23 -17 13 -17 35 0 41 19 8 32 2 35 -18z m800 0
c4 -20 -15 -36 -35 -28 -17 6 -17 40 0 46 19 8 32 2 35 -18z m1062 -5 c0 -10
-6 -20 -12 -23 -21 -7 -38 4 -38 23 0 10 6 20 13 23 20 7 37 -4 37 -23z m2236
-29 c16 -73 21 -76 88 -55 42 13 59 15 68 6 8 -8 4 -14 -18 -22 -152 -54 -204
-87 -204 -129 0 -38 52 -55 152 -47 71 5 88 3 88 -8 0 -26 -156 -37 -219 -15
-68 24 -71 109 -6 152 40 25 40 27 20 103 -8 31 -12 61 -9 66 12 20 28 -1 40
-51z m-6618 22 c85 -63 82 -231 -5 -289 -39 -25 -124 -25 -159 2 -48 35 -66
81 -62 156 4 77 24 112 79 141 42 22 110 18 147 -10z m632 -63 c0 -49 4 -90 8
-90 4 0 28 20 52 45 39 39 80 59 80 38 0 -4 -20 -28 -45 -53 l-45 -46 50 -59
c27 -33 50 -63 50 -67 0 -5 -10 -8 -22 -8 -15 1 -36 18 -62 50 -51 65 -66 65
-66 0 0 -43 -3 -50 -20 -50 -19 0 -20 7 -20 165 0 158 1 165 20 165 19 0 20
-7 20 -90z m1120 -75 c0 -156 -1 -165 -19 -165 -11 0 -21 6 -24 13 -4 10 -7
10 -18 0 -7 -7 -32 -13 -54 -13 -71 0 -115 69 -100 154 10 53 48 86 101 86 23
0 46 -4 49 -10 15 -24 25 -6 25 45 0 48 2 55 20 55 19 0 20 -7 20 -165z m355
150 c26 -13 55 -49 55 -70 0 -15 -43 -1 -65 21 -21 21 -32 25 -57 20 -39 -8
-58 -23 -58 -46 0 -24 18 -37 85 -60 76 -26 95 -44 95 -89 0 -48 -22 -78 -69
-92 -73 -22 -161 17 -161 71 0 26 22 26 46 -1 28 -32 62 -41 100 -29 18 6 35
18 38 27 13 34 -5 52 -77 75 -63 21 -74 29 -90 60 -22 45 -11 80 35 108 40 24
79 25 123 5z m155 -40 c0 -52 1 -55 19 -45 32 17 89 12 110 -9 25 -25 33 -68
29 -151 -3 -57 -5 -65 -23 -65 -18 0 -20 8 -25 92 -3 50 -8 95 -12 99 -5 4
-22 7 -39 7 -47 0 -59 -23 -59 -120 0 -76 -2 -83 -20 -83 -19 0 -20 7 -20 165
0 158 1 165 20 165 18 0 20 -7 20 -55z m820 -35 c0 -49 4 -90 8 -90 4 0 28 20
52 45 39 39 80 59 80 38 0 -4 -20 -28 -45 -53 l-45 -46 50 -59 c27 -33 50 -63
50 -67 0 -5 -10 -8 -23 -8 -16 0 -34 15 -60 50 -48 64 -65 65 -69 3 -2 -36 -7
-49 -20 -51 -17 -3 -18 10 -18 162 0 159 1 166 20 166 19 0 20 -7 20 -90z
m612 51 c15 -17 28 -36 28 -41 0 -19 -39 -10 -64 15 -29 29 -62 32 -94 9 -46
-32 -19 -71 64 -93 66 -17 94 -45 94 -92 0 -30 -6 -46 -26 -64 -65 -60 -204
-29 -204 47 0 25 22 22 49 -6 29 -31 62 -39 98 -25 75 28 53 77 -47 105 -70
19 -92 40 -92 88 0 43 6 52 46 77 46 30 112 21 148 -20z m1318 -16 c21 -42 25
-64 25 -140 0 -77 -4 -98 -27 -147 -16 -34 -33 -58 -42 -58 -20 0 -20 -6 6 65
15 43 22 83 21 140 0 72 -6 103 -38 179 -6 14 -4 17 11 15 11 -3 30 -25 44
-54z m328 13 c-33 -65 -37 -202 -9 -287 12 -35 19 -66 16 -70 -11 -11 -54 48
-66 92 -22 74 -15 187 14 251 19 42 31 56 47 56 l20 0 -22 -42z m352 -102 c0
-119 -2 -136 -20 -159 -48 -61 -160 -34 -160 39 0 23 29 16 55 -13 23 -27 25
-27 52 -13 l28 16 3 132 c2 124 4 132 22 132 19 0 20 -7 20 -134z m259 119
c34 -17 41 -33 41 -86 0 -30 -7 -47 -27 -67 l-26 -26 31 -57 c18 -32 32 -60
32 -63 0 -3 -10 -6 -22 -6 -18 0 -31 15 -56 60 -18 33 -36 60 -40 61 -4 0 -18
2 -31 5 -32 6 -41 -10 -41 -73 0 -46 -3 -53 -20 -53 -19 0 -20 7 -20 160 l0
160 75 0 c47 0 87 -6 104 -15z m-2117 -32 c2 -19 10 -29 26 -33 13 -3 23 -9
23 -15 0 -5 -10 -12 -23 -15 -20 -5 -23 -13 -26 -65 -4 -78 2 -99 33 -113 32
-15 24 -32 -15 -32 -45 0 -60 31 -60 123 0 70 -2 79 -20 84 -11 3 -20 12 -20
19 0 8 9 14 20 14 16 0 20 7 20 30 0 23 5 30 19 30 14 0 21 -8 23 -27z m398
-3 c0 -25 4 -30 24 -30 14 0 27 -4 30 -9 8 -12 -18 -32 -35 -29 -11 2 -15 -16
-17 -74 -3 -77 -3 -77 28 -93 36 -19 31 -35 -10 -35 -45 0 -60 31 -60 122 0
68 -2 77 -20 83 -11 3 -20 13 -20 21 0 8 9 14 20 14 16 0 20 7 20 30 0 23 4
30 20 30 16 0 20 -7 20 -30z m-3935 -47 c0 -7 -28 -47 -61 -90 -34 -43 -62
-82 -63 -88 -1 -5 26 -12 59 -15 91 -8 73 -25 -30 -28 -112 -3 -113 0 -25 114
l65 83 -62 3 c-51 2 -63 6 -66 21 -3 16 5 18 90 15 64 -2 93 -7 93 -15z m206
-2 c22 -17 24 -29 27 -115 3 -83 2 -97 -13 -102 -9 -4 -20 -1 -25 6 -6 9 -13
9 -28 1 -38 -20 -89 -14 -111 15 -27 35 -26 59 4 89 18 19 35 25 67 25 57 0
74 11 59 38 -16 30 -45 36 -85 17 -50 -24 -67 -15 -34 18 34 34 103 38 139 8z
m364 -101 c0 -100 -2 -115 -17 -118 -15 -3 -17 10 -20 113 -2 64 -1 119 2 121
2 3 11 3 20 2 12 -3 15 -22 15 -118z m341 99 c27 -30 35 -206 9 -215 -9 -4
-20 -1 -25 6 -6 9 -13 9 -28 1 -38 -20 -89 -14 -111 15 -27 35 -26 59 4 89 18
19 35 25 67 25 57 0 74 11 59 38 -16 30 -45 36 -85 17 -50 -24 -67 -15 -34 18
36 36 114 39 144 6z m117 9 c4 -10 7 -10 18 0 14 13 87 16 105 4 25 -16 34
-55 34 -141 0 -84 -1 -91 -20 -91 -18 0 -20 7 -20 85 0 72 -3 88 -21 106 -14
14 -27 18 -42 13 -41 -12 -46 -24 -49 -112 -3 -79 -5 -87 -23 -87 -19 0 -20 8
-23 104 -1 58 0 111 2 118 7 17 33 17 39 1z m1197 -108 c0 -113 -1 -120 -20
-120 -19 0 -20 7 -20 120 0 113 1 120 20 120 19 0 20 -7 20 -120z m92 109 c3
-9 9 -9 25 0 24 12 82 15 99 3 25 -16 34 -55 34 -141 0 -84 -1 -91 -20 -91
-19 0 -20 7 -20 90 0 86 -1 90 -26 107 -24 15 -29 15 -53 2 -24 -14 -26 -20
-31 -104 -5 -82 -7 -90 -25 -90 -19 0 -20 8 -23 104 -1 58 0 111 2 118 7 16
33 17 38 2z m703 -109 c0 -100 -2 -115 -17 -118 -15 -3 -17 10 -20 101 -4 125
-1 139 20 135 15 -3 17 -19 17 -118z m780 95 c23 -22 25 -32 25 -115 0 -74 -3
-92 -16 -97 -9 -3 -19 0 -24 7 -6 9 -13 9 -28 1 -54 -29 -132 4 -132 55 0 41
33 68 91 74 46 4 54 8 57 27 6 38 -67 55 -89 21 -4 -5 -17 -8 -30 -6 l-24 3
27 28 c37 37 107 39 143 2z m280 -95 c0 -101 -2 -115 -17 -118 -16 -3 -18 8
-18 118 0 110 2 121 18 118 15 -3 17 -17 17 -118z m236 91 c16 -16 29 -38 30
-48 4 -75 -15 -134 -50 -153 -33 -17 -96 -12 -124 11 -57 44 -57 154 0 198 40
33 107 29 144 -8z m121 18 c3 -9 9 -9 25 0 36 19 90 14 113 -11 17 -19 20 -35
20 -120 0 -91 -1 -98 -20 -98 -18 0 -20 7 -20 85 0 72 -3 88 -20 105 -24 24
-39 25 -66 6 -15 -12 -20 -30 -24 -103 -5 -80 -7 -88 -25 -88 -19 0 -20 8 -23
104 -1 58 0 111 2 118 7 16 33 17 38 2z m-1752 -99 c0 -18 -7 -20 -75 -20 -56
0 -75 3 -75 13 0 23 11 27 82 27 61 0 68 -2 68 -20z m3096 -62 c-8 -57 -12
-68 -28 -68 -6 0 -7 18 -3 53 8 58 12 67 27 67 7 0 8 -17 4 -52z m101 17 c7
-22 8 -37 1 -41 -13 -9 -18 -1 -25 40 -7 46 10 47 24 1z m-1008 -39 c15 -18 3
-46 -20 -46 -22 0 -34 22 -25 45 7 19 30 19 45 1z m-4769 -246 c0 -18 7 -20
80 -20 64 0 80 -3 80 -15 0 -12 -16 -15 -85 -15 -68 0 -85 -3 -85 -15 0 -10
16 -15 63 -17 l62 -3 0 -100 0 -100 -113 -3 -113 -3 3 103 3 103 29 5 c16 3
31 11 34 18 3 9 -18 12 -82 12 -70 0 -86 3 -86 15 0 12 17 15 89 15 80 0 89 2
94 20 3 11 10 20 16 20 6 0 11 -9 11 -20z m1150 -5 c7 -19 17 -25 40 -25 16 0
30 -4 30 -10 0 -5 -16 -10 -36 -10 -28 0 -35 -3 -32 -17 2 -11 13 -18 28 -18
24 0 25 -3 28 -78 l3 -77 -31 0 c-20 0 -30 -5 -30 -15 0 -10 11 -15 35 -15 24
0 35 -5 35 -15 0 -10 -11 -15 -35 -15 -33 0 -35 -2 -35 -35 0 -24 -5 -35 -15
-35 -10 0 -15 10 -15 34 0 33 -2 35 -37 38 -52 4 -56 28 -4 28 30 0 41 4 41
15 0 10 -10 15 -30 15 l-30 0 0 75 0 75 30 0 c23 0 30 4 30 20 0 16 -7 20 -35
20 -19 0 -35 5 -35 10 0 6 14 10 30 10 23 0 33 6 40 25 5 14 12 25 15 25 3 0
10 -11 15 -25z m930 -20 c0 -39 8 -43 80 -40 30 1 61 0 68 -3 18 -7 17 -182
-2 -182 -8 0 -17 7 -20 16 -4 12 -19 14 -63 12 l-58 -3 -3 -72 c-2 -55 -6 -73
-17 -73 -11 0 -15 18 -17 73 l-3 72 -45 3 c-32 3 -48 -1 -57 -13 -6 -10 -17
-15 -24 -13 -17 6 -21 169 -5 180 6 4 39 8 74 8 l62 0 0 33 c0 19 3 37 6 40
13 13 24 -5 24 -38z m3862 21 c-2 -13 6 -16 43 -16 l45 0 0 -75 0 -75 -40 0
c-43 0 -48 -6 -26 -36 14 -19 15 -19 38 4 44 41 55 16 12 -29 l-26 -27 37 -36
c33 -33 39 -56 15 -56 -5 0 -28 23 -50 51 l-40 51 0 -40 c0 -60 -7 -72 -46
-72 -24 0 -34 5 -34 15 0 9 9 15 25 15 24 0 25 3 25 55 0 63 -10 70 -29 20
-13 -37 -69 -100 -80 -90 -3 4 -7 16 -8 28 -2 12 -5 39 -9 60 -4 24 -2 37 5
37 6 0 14 -18 17 -40 8 -48 18 -50 39 -10 20 38 19 40 -9 40 -15 0 -26 7 -29
20 -3 12 -14 20 -26 20 -20 0 -21 -5 -21 -90 0 -73 -3 -90 -15 -90 -12 0 -15
17 -15 89 l0 89 -31 -2 c-18 0 -34 5 -36 12 -3 7 4 12 16 12 11 0 25 9 32 21
9 18 7 25 -15 48 -31 32 -33 51 -7 51 12 0 25 12 33 30 7 17 19 30 25 30 19 0
16 -18 -8 -56 -19 -31 -19 -54 -1 -54 4 0 16 14 25 30 10 17 22 30 28 30 17 0
9 -26 -21 -66 -35 -46 -36 -54 -10 -54 13 0 20 7 20 20 0 34 19 22 31 -20 10
-34 16 -40 40 -40 15 0 34 -3 43 -6 12 -4 16 0 16 15 0 18 -6 21 -40 21 l-40
0 0 75 0 75 30 0 c19 0 34 7 42 20 15 23 34 21 30 -4z m353 -12 l1 -29 74 0
75 0 0 -155 0 -155 -49 0 c-31 0 -51 5 -53 13 -3 8 8 12 36 12 l41 0 0 125 0
125 -65 0 c-36 0 -65 -2 -65 -5 0 -21 39 -77 78 -112 38 -34 45 -44 35 -54
-11 -11 -24 -1 -70 46 -39 40 -58 54 -61 44 -3 -8 -24 -33 -48 -57 -33 -33
-48 -42 -64 -37 -19 6 -20 2 -20 -54 0 -48 -3 -61 -15 -61 -13 0 -15 24 -15
159 0 120 3 160 13 164 7 2 35 5 62 5 81 0 85 1 79 17 -8 21 3 48 19 42 6 -2
12 -17 12 -33z m-3772 -47 l-2 -67 65 0 c49 0 64 -3 64 -15 0 -10 -16 -15 -62
-17 l-63 -3 0 -75 0 -75 78 -3 c59 -2 77 -6 77 -17 0 -13 -30 -15 -191 -15
-148 0 -190 3 -187 13 3 6 20 14 39 17 l34 5 3 123 c2 99 5 122 17 122 12 0
15 -22 15 -125 l0 -125 40 0 40 0 0 158 c0 87 3 162 7 166 18 18 28 -6 26 -67z
m-2263 28 c27 -28 32 -38 21 -44 -9 -6 -22 1 -42 24 -52 59 -33 76 21 20z
m290 21 c0 -8 -13 -23 -30 -33 -40 -23 -38 -31 8 -35 l37 -3 2 -85 c3 -121 0
-132 -40 -128 -34 3 -40 20 -10 28 36 10 20 35 -24 38 l-43 3 0 -35 c0 -25 -4
-36 -15 -36 -10 0 -15 11 -15 35 0 33 -2 35 -35 35 -33 0 -35 -2 -35 -35 0
-24 -5 -35 -15 -35 -12 0 -15 19 -15 110 l0 110 40 0 c22 0 40 5 40 10 0 6 -4
10 -10 10 -5 0 -10 7 -10 15 0 10 -11 15 -35 15 -24 0 -35 5 -35 15 0 13 20
15 120 15 98 0 120 -3 120 -14z m135 -22 c20 -26 24 -39 16 -47 -6 -6 -12 -9
-14 -6 -52 65 -62 89 -37 89 4 0 20 -16 35 -36z m305 -2 l0 -39 -51 -2 c-57
-2 -72 -7 -63 -22 3 -6 25 -9 48 -7 l41 3 3 -63 3 -62 -51 0 c-74 0 -62 -24
13 -28 76 -4 73 -22 -3 -22 -57 0 -60 -1 -60 -25 0 -24 2 -25 70 -25 59 0 68
-2 63 -16 -5 -13 -24 -15 -132 -12 -114 3 -129 5 -155 26 l-29 23 -29 -28
c-24 -23 -31 -25 -38 -13 -7 11 0 22 26 43 32 27 35 33 32 76 -3 42 -5 46 -30
49 -45 5 -32 22 17 22 l45 0 0 -69 c0 -62 2 -70 25 -85 13 -9 42 -16 65 -16
36 0 40 2 40 25 0 24 -3 25 -55 25 -70 0 -72 18 -3 22 67 4 79 28 13 28 l-46
0 3 63 3 62 36 -3 c21 -2 40 1 43 7 9 14 -4 20 -57 23 -26 2 -47 6 -48 11 -1
9 -1 55 0 62 1 3 60 5 131 5 l130 0 0 -38z m647 12 l-5 -26 69 7 c57 6 69 4
69 -8 0 -15 -57 -27 -126 -27 -23 0 -37 -6 -44 -19 -15 -30 -13 -33 20 -26 23
5 35 1 55 -19 25 -25 26 -25 65 -10 22 9 47 13 56 10 23 -9 11 -18 -44 -37
-45 -15 -47 -17 -50 -57 -4 -50 -32 -61 -32 -12 0 38 -11 38 -52 1 l-33 -29
20 -22 c18 -20 28 -22 102 -18 50 2 83 -1 83 -7 2 -24 -147 -34 -190 -12 -59
30 -45 101 25 134 36 17 46 40 21 49 -19 7 -74 -17 -113 -50 -29 -24 -34 -26
-39 -11 -4 10 3 26 18 43 29 31 58 73 58 84 0 4 -17 8 -37 10 -54 4 -43 22 16
26 43 3 50 6 55 27 9 35 40 34 33 -1z m2468 -31 l-7 -58 24 35 c66 97 164 63
176 -59 6 -66 -18 -130 -63 -170 -35 -30 -94 -49 -115 -36 -16 10 -3 20 42 34
20 7 51 28 68 47 27 31 30 42 30 97 0 40 -6 70 -16 85 -20 29 -64 29 -91 0
-23 -26 -53 -99 -53 -128 0 -11 -7 -20 -15 -20 -12 0 -15 15 -15 78 0 104 9
152 27 152 13 0 14 -10 8 -57z m471 44 c2 -7 -9 -46 -26 -87 -29 -71 -32 -96
-8 -72 7 7 24 12 40 12 33 0 48 -24 48 -77 0 -92 65 -99 104 -12 18 43 24 48
34 36 16 -19 1 -62 -36 -99 -18 -20 -36 -28 -61 -28 -52 0 -71 23 -71 87 0 39
-4 55 -16 60 -30 11 -62 -15 -94 -81 -18 -36 -39 -66 -46 -66 -8 0 -14 4 -14
9 0 4 25 75 55 157 31 82 58 155 60 162 6 16 24 16 31 -1z m406 -35 c-3 -39
-2 -42 23 -42 15 0 37 -11 52 -26 24 -24 25 -30 19 -94 -8 -85 -22 -119 -54
-127 -29 -7 -74 7 -80 25 -3 9 6 11 37 6 37 -6 41 -4 51 20 13 36 15 145 3
157 -6 6 -23 9 -38 7 -24 -3 -30 -11 -45 -58 -27 -89 -73 -171 -89 -161 -10 7
-6 24 22 83 20 41 39 87 43 102 6 25 5 26 -35 26 -30 0 -41 4 -41 15 0 11 11
15 40 15 34 0 42 4 50 26 6 14 10 37 10 50 0 19 5 25 17 22 14 -3 17 -12 15
-46z m-2152 -95 c0 -141 4 -153 52 -170 49 -17 127 39 143 106 8 30 22 35 32
11 9 -24 -28 -93 -65 -122 -49 -37 -131 -38 -167 -1 -28 27 -31 54 -27 217 2
74 5 92 17 92 13 0 15 -21 15 -133z m-1420 108 c0 -12 -16 -15 -85 -15 -69 0
-85 3 -85 15 0 12 16 15 85 15 69 0 85 -3 85 -15z m-1770 -13 c19 -9 45 -33
58 -52 20 -29 23 -44 20 -88 -3 -31 -13 -64 -24 -80 -24 -32 -108 -77 -129
-68 -23 9 -18 23 13 31 116 29 147 182 46 230 -40 19 -54 13 -54 -20 0 -44
-43 -156 -71 -186 -33 -36 -61 -37 -88 -3 -58 74 -23 188 74 238 40 21 112 20
155 -2z m3853 1 c11 -10 -14 -33 -36 -33 -39 0 -108 -50 -127 -92 -30 -67 -2
-111 83 -132 35 -8 36 -36 2 -36 -43 0 -104 38 -122 74 -22 47 -11 97 32 142
19 20 35 39 35 41 0 3 -45 1 -100 -2 -87 -7 -100 -6 -100 8 0 11 14 17 53 21
113 13 272 18 280 9z m1830 -10 c3 -10 6 -47 6 -83 3 -138 51 -199 76 -97 7
28 19 35 30 17 11 -17 -15 -80 -40 -96 -54 -35 -94 37 -103 184 -4 79 -3 92
11 92 9 0 18 -8 20 -17z m257 -88 c32 -68 42 -125 23 -132 -7 -3 -15 1 -16 9
-15 56 -43 128 -59 151 -11 15 -17 35 -14 43 10 25 32 1 66 -71z m-426 44 c47
-55 68 -129 37 -129 -5 0 -12 11 -15 24 -3 13 -21 46 -40 74 -31 47 -35 62
-15 62 4 0 19 -14 33 -31z m-5307 -105 l1 -109 156 -3 c130 -2 156 -5 156 -17
0 -13 -26 -15 -160 -15 -100 0 -160 -4 -160 -10 0 -5 -7 -10 -15 -10 -13 0
-15 21 -15 133 0 74 3 137 7 141 20 20 28 -9 30 -110z m1576 61 c1 -5 -22 -12
-51 -15 l-54 -5 -23 -74 -24 -73 45 5 c25 2 47 7 50 10 3 3 -2 22 -10 42 -19
44 -20 55 -6 55 13 0 70 -117 70 -142 0 -23 -19 -23 -27 -2 -6 17 -35 16 -145
-2 -30 -5 -38 -3 -38 9 0 8 6 17 14 20 15 6 56 106 56 137 0 15 -7 20 -24 20
-26 0 -40 12 -29 24 11 11 193 2 196 -9z m-1143 -76 c0 -99 9 -104 171 -104
110 0 129 -2 127 -15 -3 -12 -25 -15 -130 -15 -113 0 -130 2 -155 21 l-28 21
-31 -24 c-43 -32 -55 -6 -13 31 25 22 29 33 29 76 0 47 -2 50 -25 50 -14 0
-25 6 -25 13 0 8 14 12 40 12 l40 0 0 -66z m5440 -28 c0 -51 -12 -91 -27 -91
-12 0 -14 10 -8 53 8 57 12 67 26 67 5 0 9 -13 9 -29z m-2086 -51 c33 -37 39
-60 16 -60 -14 0 -89 83 -84 92 11 17 33 6 68 -32z m-3894 -219 c0 -5 -7 -14
-16 -22 -24 -19 -43 -64 -54 -121 -14 -69 2 -144 41 -197 26 -37 27 -41 10
-41 -40 0 -91 106 -91 191 0 57 30 142 61 175 22 24 49 32 49 15z m1420 -16
c8 -20 16 -25 36 -23 15 2 29 -3 31 -9 3 -7 -2 -13 -11 -13 -9 0 -16 -6 -16
-12 0 -7 -3 -23 -6 -35 -5 -17 -1 -22 17 -25 41 -6 33 -27 -12 -30 -31 -2 -43
-8 -45 -20 -2 -15 5 -18 37 -18 28 0 39 -4 39 -15 0 -10 -10 -15 -32 -15 l-33
-1 29 -25 c21 -19 26 -28 18 -36 -9 -9 -16 -7 -30 5 -10 9 -20 17 -23 17 -2 0
-4 -23 -4 -52 0 -32 -5 -53 -12 -55 -10 -3 -13 11 -13 53 l0 58 -34 -37 c-18
-20 -39 -37 -45 -37 -21 0 -11 24 24 56 19 17 35 37 35 43 0 6 -16 11 -35 11
-24 0 -35 5 -35 15 0 11 12 15 45 15 38 0 45 3 45 20 0 17 -7 20 -45 20 -33 0
-45 4 -45 15 0 10 10 15 29 15 28 0 28 1 17 35 -6 19 -17 35 -24 35 -8 0 -12
6 -9 13 2 6 19 12 37 13 25 0 35 6 41 22 11 29 17 28 29 -3z m1609 4 c52 -56
77 -185 51 -266 -17 -53 -57 -103 -82 -103 l-21 0 21 23 c74 79 81 246 13 322
-29 32 -34 45 -17 45 8 0 24 -10 35 -21z m2591 -5 c7 -17 15 -24 25 -20 18 6
45 -2 45 -15 0 -5 -16 -9 -36 -9 -28 0 -35 -3 -32 -17 2 -12 12 -18 28 -18 14
0 27 -3 30 -6 3 -4 4 -39 2 -78 l-4 -71 -29 0 c-19 0 -29 -5 -29 -15 0 -10 11
-15 35 -15 24 0 35 -5 35 -15 0 -10 -11 -15 -35 -15 -33 0 -35 -2 -35 -35 0
-24 -5 -35 -15 -35 -10 0 -15 11 -15 35 0 34 -1 35 -40 35 -29 0 -40 4 -40 15
0 11 11 15 40 15 29 0 40 4 40 15 0 10 -10 15 -30 15 l-31 0 3 78 3 77 28 -3
c22 -3 27 1 27 17 0 17 -6 21 -35 21 -19 0 -35 5 -35 10 0 6 14 10 30 10 23 0
33 6 40 25 12 32 18 31 30 -1z m-5378 -31 l3 -48 83 -5 c108 -7 111 -24 4 -28
-80 -3 -83 -4 -77 -25 19 -62 87 -146 151 -183 15 -9 16 -15 7 -24 -25 -26
-128 64 -163 143 l-18 39 -12 -36 c-24 -72 -143 -177 -171 -149 -6 6 9 22 45
46 57 38 91 88 107 155 l7 32 -79 0 c-64 0 -79 3 -79 15 0 12 16 15 80 15 l80
0 0 43 c0 24 3 47 7 50 15 16 22 4 25 -40z m314 11 c1 -16 2 -80 3 -141 0 -68
5 -113 11 -113 6 0 10 45 10 116 0 88 3 115 13 112 6 -3 13 -23 15 -46 2 -23
7 -42 12 -42 5 0 7 6 4 13 -3 8 10 20 31 30 43 21 45 35 3 39 -48 5 -48 28 0
28 32 0 42 4 47 20 3 11 10 20 15 20 4 0 10 -9 13 -20 4 -16 14 -20 51 -20 34
0 46 -4 46 -15 0 -11 -12 -15 -42 -15 l-43 -1 30 -24 c17 -14 36 -25 44 -25 7
0 11 -6 8 -14 -3 -8 1 -17 9 -20 20 -8 17 -23 -6 -29 -17 -4 -20 -15 -22 -98
l-3 -94 -37 -3 c-29 -2 -38 0 -38 12 0 10 9 16 25 16 25 0 25 1 25 85 l0 85
-85 0 -85 0 0 -74 c0 -70 -10 -100 -25 -76 -3 5 -22 10 -42 10 -26 0 -36 -5
-40 -20 -3 -11 -12 -20 -19 -20 -20 0 -16 291 4 298 9 3 12 -24 12 -112 0 -96
3 -116 15 -116 13 0 15 23 15 146 0 112 3 145 13 141 6 -2 13 -17 13 -33z
m1114 22 c0 -14 -34 -28 -97 -41 -30 -6 -33 -10 -33 -41 l0 -34 75 0 c58 0 75
-3 75 -14 0 -9 -12 -16 -27 -18 l-28 -3 0 -107 c0 -97 -2 -108 -17 -108 -16 0
-18 12 -18 110 l0 110 -30 0 c-29 0 -30 -2 -30 -43 0 -84 -46 -195 -70 -171
-8 8 -5 21 11 49 19 32 24 58 28 163 l6 125 57 12 c32 6 61 14 64 18 13 12 34
7 34 -7z m252 -29 c-2 -20 0 -37 5 -38 4 0 42 -2 83 -2 58 -2 75 -5 78 -17 2
-12 -11 -15 -69 -15 -46 0 -74 -4 -76 -12 -5 -14 112 -140 138 -148 21 -7 23
-35 3 -42 -13 -4 -109 86 -142 132 l-21 30 1 -110 c0 -93 -2 -110 -16 -113
-14 -3 -16 10 -16 97 0 56 -3 101 -7 101 -5 -1 -23 -21 -40 -45 -45 -60 -100
-102 -116 -86 -9 9 1 22 42 58 61 54 113 121 105 135 -4 6 -36 8 -73 6 -53 -2
-66 0 -66 12 0 12 10 14 45 12 25 -2 60 0 78 3 30 5 32 9 32 46 0 33 3 40 18
37 13 -3 16 -12 14 -41z m305 7 c0 -16 2 -39 2 -50 1 -14 7 -21 17 -20 26 2
28 -22 3 -26 -19 -3 -22 -10 -23 -50 -1 -43 1 -47 18 -42 16 5 18 2 13 -15 -5
-19 -3 -21 11 -10 22 17 42 41 42 51 0 4 -11 8 -25 8 -14 0 -25 6 -25 13 0 9
33 12 130 12 95 0 130 -3 130 -12 0 -8 -27 -13 -87 -15 -49 -2 -88 -7 -88 -13
0 -6 33 -8 84 -6 l84 3 -6 -64 c-3 -35 -9 -71 -12 -80 -8 -19 -48 -31 -76 -23
-29 9 -17 31 14 27 21 -3 29 2 37 23 13 33 13 85 1 85 -5 0 -19 -15 -30 -34
-31 -49 -101 -110 -113 -98 -6 6 8 26 41 57 48 45 64 75 40 75 -6 0 -31 -20
-55 -44 -44 -45 -80 -64 -92 -51 -4 4 4 15 18 24 13 9 36 26 50 38 23 20 23
22 7 29 -13 4 -27 -2 -46 -20 -30 -29 -67 -36 -57 -11 4 12 -3 11 -35 -5 -57
-29 -85 -10 -31 21 26 14 28 21 28 70 -1 52 -2 54 -29 57 -33 4 -31 24 4 32
21 5 23 11 21 43 -2 20 0 41 3 47 12 19 30 4 32 -26z m1691 -1 c-3 -35 -1 -38
25 -41 34 -4 36 -30 2 -34 -14 -2 -25 -6 -25 -10 0 -5 0 -21 0 -38 0 -27 2
-29 25 -20 20 7 25 6 25 -5 0 -8 -11 -17 -25 -21 -24 -6 -25 -10 -25 -74 0
-77 -15 -103 -58 -98 -36 4 -39 26 -5 30 27 3 28 5 27 58 l0 55 -32 -3 c-42
-4 -44 24 -2 33 17 4 30 11 31 16 6 63 2 74 -26 79 -37 6 -37 24 1 30 27 5 29
8 26 43 -3 32 -1 37 18 37 19 0 21 -5 18 -37z m262 22 c0 -10 -25 -19 -80 -31
l-81 -18 3 -30 3 -31 85 0 c69 0 85 -3 85 -15 0 -10 -8 -14 -27 -12 -18 2 -28
-1 -29 -10 0 -7 0 -59 1 -115 1 -97 0 -103 -19 -103 -19 0 -21 7 -23 113 l-3
112 -35 0 -35 0 -8 -65 c-9 -76 -40 -150 -61 -150 -21 0 -20 5 6 59 19 38 23
67 26 162 l4 116 60 7 c33 3 67 10 76 16 25 14 52 12 52 -5z m-1700 -60 l0
-65 -95 0 -95 0 0 65 0 65 95 0 95 0 0 -65z m248 -2 c3 -69 6 -66 -68 -67
l-45 -1 -3 -117 c-2 -96 -5 -118 -17 -118 -13 0 -15 29 -15 185 l0 186 73 -3
72 -3 3 -62z m190 -110 l-3 -178 -42 -3 c-34 -3 -43 0 -43 13 0 12 7 16 28 13
l27 -3 3 97 3 96 -30 7 c-17 4 -35 3 -41 0 -6 -4 -21 -4 -33 -1 -19 5 -22 11
-21 58 1 29 2 59 3 66 1 8 23 12 76 12 l75 0 -2 -177z m1428 98 c-11 -17 -19
-13 -49 24 -39 49 -24 66 21 22 19 -19 31 -40 28 -46z m810 44 c20 -27 24 -39
16 -47 -7 -7 -13 -10 -15 -7 -52 65 -62 89 -36 89 4 0 20 -16 35 -35z m304 -3
l0 -38 -52 -3 c-28 -1 -56 -4 -60 -7 -19 -12 6 -24 48 -24 l44 0 0 -59 0 -60
-47 -3 c-65 -4 -56 -22 12 -26 74 -4 70 -22 -5 -22 -57 0 -60 -1 -60 -25 0
-24 2 -25 70 -25 59 0 68 -2 63 -16 -5 -13 -24 -15 -134 -12 -119 3 -129 5
-153 27 l-26 25 -31 -30 c-25 -24 -32 -26 -39 -14 -7 11 0 22 26 43 32 27 35
33 32 76 -3 42 -5 46 -30 49 -45 5 -32 22 17 22 l45 0 0 -70 c0 -67 1 -70 30
-85 16 -8 45 -15 65 -15 31 0 35 3 35 25 0 24 -3 25 -55 25 -30 0 -55 5 -55
10 0 6 25 10 55 10 42 0 55 3 55 15 0 11 -12 15 -45 15 l-45 0 0 60 0 60 45 0
c33 0 45 4 45 15 0 11 -12 15 -42 16 -24 1 -49 1 -55 0 -7 -1 -13 2 -14 6 0 4
-2 19 -4 33 -1 14 -1 28 2 33 2 4 62 7 134 7 l129 0 0 -38z m646 12 l-7 -27
70 7 c59 6 71 5 71 -7 0 -11 -19 -17 -72 -22 -75 -7 -92 -15 -109 -47 -9 -16
-7 -17 17 -8 32 12 55 6 79 -20 16 -18 19 -18 56 -3 21 8 46 12 55 9 23 -9 11
-18 -44 -37 -45 -15 -47 -17 -50 -57 -4 -50 -32 -61 -32 -12 0 38 -11 38 -52
0 l-33 -30 25 -21 c22 -19 33 -21 103 -16 61 5 77 4 77 -7 0 -26 -144 -36
-190 -13 -59 30 -45 101 25 134 35 17 44 36 24 48 -17 11 -55 -3 -103 -40 -38
-29 -48 -33 -53 -20 -3 10 5 27 19 43 29 31 58 73 58 84 0 4 -17 8 -37 10 -54
4 -47 22 10 26 40 3 50 7 59 28 16 34 42 32 34 -2z m384 -10 l0 -37 45 6 c34
5 45 3 45 -7 0 -16 -21 -26 -55 -26 -30 0 -39 -14 -31 -46 6 -23 9 -24 55 -18
90 12 151 -25 151 -92 0 -99 -146 -116 -153 -18 -3 40 26 39 33 -1 6 -36 42
-46 71 -19 27 24 24 59 -8 84 -23 18 -38 21 -80 18 -29 -3 -56 -8 -60 -11 -4
-4 -8 -31 -10 -59 -4 -71 -8 -78 -43 -78 -33 0 -80 38 -80 64 0 20 46 74 70
81 15 5 20 15 20 46 0 39 0 39 -40 39 -29 0 -40 4 -40 15 0 11 11 15 40 15
l40 0 0 40 c0 29 4 40 15 40 11 0 15 -11 15 -36z m-1860 16 c0 -12 0 -12 -107
-10 -46 1 -87 -1 -92 -4 -4 -3 -6 -17 -3 -31 4 -24 7 -25 81 -25 95 0 107 -9
81 -61 -11 -21 -24 -40 -30 -44 -23 -14 -9 -44 30 -61 22 -10 40 -24 40 -31 0
-20 -27 -15 -69 13 l-39 25 -47 -30 c-45 -29 -65 -32 -65 -11 0 5 18 19 40 30
22 11 40 24 40 29 0 4 -13 32 -29 62 -32 57 -35 55 -45 -19 -9 -65 -34 -118
-48 -104 -8 8 -7 21 5 49 8 21 18 82 22 136 l7 97 114 0 c69 0 114 -4 114 -10z
m150 -122 c0 -154 6 -168 75 -168 54 0 87 26 111 85 20 47 31 55 41 29 9 -24
-28 -94 -66 -122 -47 -37 -127 -38 -164 -4 -33 31 -37 60 -30 197 5 87 9 115
20 115 10 0 13 -28 13 -132z m1100 107 c0 -12 -16 -15 -85 -15 -78 0 -96 5
-78 23 3 4 42 7 85 7 63 0 78 -3 78 -15z m-2132 -22 c-2 -11 -18 -20 -42 -25
-78 -16 -146 -95 -132 -152 7 -30 43 -56 89 -65 36 -8 44 -34 10 -39 -28 -4
-97 31 -117 60 -19 26 -21 80 -5 111 6 12 25 37 43 56 l31 33 -102 -7 c-90 -6
-103 -5 -103 9 0 9 1 17 3 17 4 3 212 16 270 17 50 2 58 0 55 -15z m2936 -22
c51 -52 29 -64 -28 -14 -24 21 -42 41 -39 46 9 15 30 6 67 -32z m-2915 -47
c23 -30 27 -44 10 -44 -14 0 -48 41 -49 58 0 20 17 14 39 -14z m-2743 -9 c19
-8 47 -24 61 -35 34 -27 102 -27 130 0 18 16 23 17 33 6 8 -11 5 -19 -15 -35
-54 -42 -102 -39 -179 9 -53 34 -85 37 -127 13 -37 -22 -49 -10 -19 22 19 21
32 27 73 34 4 0 24 -6 43 -14z m2714 -51 c0 -8 -4 -14 -9 -14 -13 0 -51 63
-44 74 8 11 53 -40 53 -60z m2153 41 c1 -5 -22 -12 -51 -15 l-54 -5 -23 -74
-24 -74 46 7 c26 3 48 8 50 10 2 2 -3 21 -11 41 -19 44 -20 55 -5 55 17 0 79
-143 67 -155 -7 -7 -15 -3 -25 12 -12 18 -19 20 -46 13 -18 -5 -56 -11 -84
-15 -43 -6 -53 -4 -53 8 0 8 6 17 14 20 15 6 56 106 56 137 0 15 -7 20 -24 20
-26 0 -40 12 -29 24 11 11 193 2 196 -9z m-1553 -78 c0 -95 10 -101 169 -104
95 -2 126 -5 126 -15 0 -10 -30 -13 -127 -13 -117 0 -129 2 -158 23 l-32 24
-28 -27 c-20 -19 -30 -23 -35 -14 -5 7 4 22 24 38 28 23 31 32 31 79 0 51 0
52 -30 52 -16 0 -30 5 -30 10 0 6 20 10 45 10 l45 0 0 -63z m-1510 -17 l0 -70
-65 0 c-51 0 -65 -3 -65 -15 0 -8 -7 -15 -15 -15 -12 0 -15 16 -15 85 l0 85
80 0 80 0 0 -70z m-2082 -12 c-3 -53 -3 -53 -38 -56 -19 -2 -39 -8 -45 -13
-19 -19 -25 -7 -25 56 l0 65 56 0 55 0 -3 -52z m-563 -324 l-6 -36 35 6 c28 5
36 4 36 -7 0 -17 -21 -27 -54 -27 -18 0 -28 -14 -55 -77 -38 -94 -57 -121 -71
-107 -7 7 1 35 26 88 40 83 38 96 -14 96 -35 0 -21 25 14 26 49 1 54 3 54 23
0 31 11 51 27 51 12 0 14 -8 8 -36z m1753 2 c3 -26 5 -27 50 -20 26 3 51 7 56
8 6 0 11 -6 13 -15 3 -13 -8 -18 -57 -23 -55 -6 -60 -9 -60 -32 0 -23 3 -24
53 -22 72 4 75 -15 5 -26 -55 -9 -58 -11 -58 -37 0 -25 8 -33 59 -59 64 -32
79 -46 63 -62 -6 -6 -26 1 -58 21 -26 17 -51 31 -55 31 -3 0 -9 -14 -13 -30
-7 -37 -44 -54 -99 -47 -49 7 -67 22 -67 58 0 37 48 69 103 69 34 0 38 3 35
23 -3 20 -9 22 -70 25 -52 2 -68 6 -68 17 0 12 15 15 68 15 65 0 69 1 67 23
-1 20 -7 22 -74 25 -61 2 -72 6 -69 19 2 14 15 16 71 14 65 -2 67 -2 67 22 0
46 33 49 38 3z m442 9 c0 -23 4 -24 62 -27 85 -4 90 -26 6 -30 l-63 -3 3 -85
c3 -76 0 -89 -20 -119 -13 -18 -40 -43 -61 -55 -32 -18 -39 -19 -47 -6 -7 12
-1 19 24 32 31 16 81 67 73 74 -2 2 -18 -2 -35 -8 -28 -11 -35 -10 -59 8 -61
46 -23 131 54 122 27 -3 33 0 33 14 0 16 -10 18 -101 18 -76 0 -100 3 -97 13
3 8 30 13 79 15 105 3 119 8 119 37 0 16 6 25 15 25 9 0 15 -9 15 -25z m790
-40 c21 -42 25 -64 25 -140 0 -77 -4 -98 -27 -147 -16 -34 -33 -58 -42 -58
-20 0 -20 -6 6 60 16 41 21 77 21 140 0 77 -7 109 -38 184 -6 14 -4 17 11 15
11 -3 30 -25 44 -54z m-3240 15 c0 -14 -110 -81 -121 -75 -15 10 -10 23 11 30
41 13 18 25 -50 25 -52 0 -70 3 -70 13 0 8 2 16 4 18 8 8 226 -3 226 -11z
m1300 -10 c0 -15 -7 -20 -27 -20 -34 0 -105 -42 -127 -74 -22 -35 -21 -91 3
-115 11 -11 38 -25 60 -31 44 -12 57 -40 19 -40 -66 1 -138 63 -138 120 0 29
37 98 60 112 39 25 19 30 -80 23 -88 -6 -100 -5 -100 9 0 19 -11 17 125 26
203 13 205 12 205 -10z m141 8 c0 -7 2 -38 5 -68 6 -96 15 -139 31 -155 19
-20 39 -5 48 36 7 30 35 41 35 14 0 -24 -25 -79 -43 -93 -49 -41 -96 41 -104
184 -5 83 -4 94 11 94 9 0 16 -6 17 -12z m-1010 -34 c40 -20 48 -28 40 -38 -9
-11 -21 -9 -61 13 -27 14 -50 32 -50 39 0 18 15 15 71 -14z m1269 -59 c33 -70
43 -130 21 -130 -8 0 -19 22 -28 55 -8 30 -27 75 -43 100 -20 31 -26 47 -17
52 17 11 34 -9 67 -77z m-1310 -45 c0 -44 3 -51 28 -64 15 -8 35 -23 45 -34
26 -29 3 -38 -32 -13 -35 25 -41 26 -41 6 0 -28 -38 -55 -78 -55 -50 0 -82 23
-82 60 0 38 32 60 87 60 l42 0 -1 39 c0 22 3 44 7 50 13 22 25 -1 25 -49z
m419 35 c28 -14 41 -39 41 -81 0 -50 -87 -113 -157 -114 -54 0 -41 26 16 34
89 12 144 92 89 130 -27 19 -75 20 -151 2 -55 -13 -82 -7 -61 14 26 26 182 37
223 15z m-1001 -32 c-2 -5 -10 -21 -18 -36 -29 -59 31 -87 151 -71 58 8 72 7
77 -4 9 -25 -22 -33 -124 -30 -84 2 -106 6 -123 22 -25 23 -28 72 -5 104 14
20 51 33 42 15z m2941 -84 c20 -36 8 -74 -28 -89 -33 -13 -64 -2 -81 30 -14
26 -13 34 11 64 28 36 77 33 98 -5z m5397 -601 c-19 -27 -22 -128 -4 -146 17
-17 53 -15 69 4 7 9 16 37 20 63 6 45 6 45 8 8 0 -21 -6 -51 -14 -67 -13 -24
-22 -30 -49 -30 -44 0 -58 19 -64 83 -3 42 0 57 18 80 26 32 38 36 16 5z m82
-23 c-3 -3 -13 7 -23 22 l-17 28 23 -22 c12 -12 20 -25 17 -28z m103 19 c-14
-18 -21 -41 -21 -72 0 -25 -3 -43 -6 -39 -16 15 -4 90 17 113 30 32 36 30 10
-2z m89 -30 c20 -59 2 -110 -47 -138 -7 -4 -13 -2 -13 3 0 6 7 11 15 11 39 0
49 110 13 155 -21 27 -21 27 -1 16 12 -6 27 -27 33 -47z m244 -1 c9 -25 14
-48 12 -51 -3 -2 -10 14 -17 37 -13 45 -23 50 -38 24 -14 -24 -14 -10 0 21 15
33 24 27 43 -31z m148 -8 c17 -37 28 -68 25 -71 -2 -3 -13 15 -23 40 -11 25
-22 46 -26 46 -4 0 -9 -33 -11 -72 -3 -67 -3 -64 -5 25 -1 53 0 97 4 97 3 0
19 -29 36 -65z m137 23 c0 -24 -3 -36 -6 -28 -3 8 -10 18 -16 21 -8 6 7 49 18
49 3 0 5 -19 4 -42z m-1181 -60 c-2 -93 -2 -93 -5 -18 -4 90 -9 108 -25 92 -7
-7 -17 -12 -22 -12 -16 1 25 30 41 30 10 0 13 -22 11 -92z m96 55 c-17 -39
-14 -94 7 -119 6 -8 24 -14 39 -14 24 0 30 6 40 36 11 33 7 95 -8 119 -4 6 1
2 11 -8 19 -22 23 -96 6 -128 -14 -27 -55 -42 -79 -29 -38 21 -51 128 -19 166
18 22 19 17 3 -23z m1030 -82 c-24 -55 -44 -78 -44 -51 0 6 4 10 9 10 5 0 13
10 17 22 13 44 35 90 40 85 2 -2 -7 -32 -22 -66z m-274 6 c10 -4 8 -6 -7 -6
-13 -1 -23 -7 -23 -14 0 -7 -7 -22 -15 -33 -12 -16 -12 -11 1 30 9 26 19 44
23 39 3 -6 13 -13 21 -16z m70 -7 c0 -5 -4 -10 -10 -10 -5 0 -10 5 -10 10 0 6
5 10 10 10 6 0 10 -4 10 -10z m20 -55 c0 -5 -5 -3 -10 5 -5 8 -10 20 -10 25 0
6 5 3 10 -5 5 -8 10 -19 10 -25z m-366 -4 c-2 -3 -12 3 -22 13 -16 17 -16 18
5 5 12 -7 20 -15 17 -18z"/>
<path d="M11591 6936 c-52 -17 -73 -53 -78 -133 -7 -93 19 -156 72 -179 53
-22 99 -5 125 46 35 69 22 229 -22 256 -26 16 -67 20 -97 10z m70 -45 c21 -17
24 -29 27 -98 4 -107 -23 -154 -80 -140 -63 16 -77 177 -22 238 22 24 46 24
75 0z"/>
<path d="M11352 6910 c-23 -17 -42 -37 -42 -45 0 -21 17 -19 48 6 l27 21 5
-133 c4 -117 7 -134 23 -137 16 -3 17 10 17 157 0 184 -2 187 -78 131z"/>
<path d="M452 6034 c-20 -9 -3 -24 28 -24 16 0 30 -7 34 -16 8 -22 9 -21 -23
-27 -15 -3 -42 -18 -60 -32 l-31 -27 0 -137 c0 -126 11 -201 29 -201 4 0 16
-6 26 -14 19 -13 18 -15 -8 -55 -15 -22 -27 -47 -27 -56 0 -22 23 -19 38 5 11
18 23 20 109 20 86 0 99 -2 120 -22 39 -36 46 -9 12 45 -30 48 -31 67 -3 67
30 0 44 63 44 204 0 74 -3 142 -6 151 -7 17 -74 55 -99 55 -34 0 -7 36 33 42
12 1 23 8 22 13 0 10 -215 18 -238 9z m152 -39 c-4 -8 -18 -15 -34 -15 -16 0
-30 7 -34 15 -4 12 3 15 34 15 31 0 38 -3 34 -15z m98 -110 c2 -3 2 -27 -2
-54 -9 -72 -35 -90 -128 -91 -68 0 -76 2 -103 29 -24 24 -29 38 -29 75 l0 46
128 0 c71 0 131 -2 134 -5z m-247 -200 c0 -22 -5 -40 -12 -42 -9 -3 -13 9 -13
42 0 33 4 45 13 43 7 -3 12 -21 12 -43z m255 -1 c0 -40 -2 -45 -15 -34 -15 13
-21 61 -8 73 16 16 23 4 23 -39z m-95 -134 c4 -6 -13 -10 -45 -10 -32 0 -49 4
-45 10 3 6 24 10 45 10 21 0 42 -4 45 -10z m35 -50 c0 -6 -33 -10 -80 -10 -47
0 -80 4 -80 10 0 6 33 10 80 10 47 0 80 -4 80 -10z"/>
<path d="M5970 5635 c0 -13 11 -15 62 -13 38 2 63 8 66 16 3 9 -14 12 -62 12
-53 0 -66 -3 -66 -15z"/>
<path d="M5970 5575 c0 -12 14 -15 65 -15 51 0 65 3 65 15 0 12 -14 15 -65 15
-51 0 -65 -3 -65 -15z"/>
<path d="M1677 5633 c-2 -5 -3 -17 -2 -28 1 -11 2 -34 3 -51 l2 -32 53 4 c55
4 77 20 77 59 0 35 -31 55 -83 55 -25 0 -48 -3 -50 -7z"/>
<path d="M6912 5523 l3 -118 57 0 c67 0 93 19 109 79 24 90 -25 156 -118 156
l-54 0 3 -117z"/>
<path d="M2553 5460 c-49 -20 -15 -74 37 -60 25 6 53 47 44 62 -7 10 -53 9
-81 -2z"/>
<path d="M3620 5550 c-37 -37 -27 -51 37 -48 63 3 75 16 44 47 -26 26 -55 27
-81 1z"/>
<path d="M7501 5549 c-36 -39 -28 -49 39 -49 63 0 73 9 48 43 -23 28 -63 31
-87 6z"/>
<path d="M5750 5039 l0 -62 53 7 c55 7 77 25 77 61 0 35 -31 55 -83 55 l-47 0
0 -61z"/>
<path d="M5170 5023 c-19 -7 -40 -33 -40 -50 0 -11 14 -13 57 -11 63 3 75 16
44 47 -21 21 -33 24 -61 14z"/>
<path d="M1700 5023 c-27 -11 -39 -37 -40 -85 0 -39 4 -50 27 -67 72 -57 145
68 78 134 -24 25 -37 28 -65 18z"/>
<path d="M1960 5023 c-27 -10 -40 -36 -40 -83 0 -55 21 -80 68 -80 62 0 87 96
37 145 -24 25 -36 28 -65 18z"/>
<path d="M2206 5009 c-44 -35 -34 -49 34 -49 66 0 77 13 40 50 -25 25 -41 25
-74 -1z"/>
<path d="M2623 4920 c-52 -21 -10 -80 42 -60 24 9 48 47 38 63 -6 10 -53 8
-80 -3z"/>
<path d="M3140 5023 c-27 -11 -39 -37 -40 -85 0 -39 4 -50 27 -67 72 -57 145
68 78 134 -24 25 -37 28 -65 18z"/>
<path d="M6790 5023 c-19 -7 -40 -33 -40 -50 0 -11 14 -13 57 -11 63 3 75 16
44 47 -21 21 -33 24 -61 14z"/>
<path d="M3166 4469 c-22 -17 -26 -28 -26 -69 0 -41 4 -52 26 -69 34 -27 50
-26 79 4 19 18 25 35 25 65 0 30 -6 47 -25 65 -29 30 -45 31 -79 4z"/>
<path d="M3685 4465 c-36 -35 -35 -105 2 -134 47 -38 103 0 103 71 0 42 -34
88 -65 88 -9 0 -27 -11 -40 -25z"/>
<path d="M4710 4482 c-27 -10 -39 -36 -40 -83 0 -49 15 -71 57 -83 17 -5 29
-1 48 18 58 58 7 176 -65 148z"/>
<path d="M2415 4478 c-30 -17 -35 -28 -35 -80 0 -38 5 -50 26 -67 34 -27 50
-26 79 4 35 34 35 96 0 130 -27 28 -40 30 -70 13z"/>
<path d="M2652 4470 c-39 -37 -29 -50 38 -50 66 0 77 13 40 50 -26 26 -50 25
-78 0z"/>
<path d="M3431 4466 c-32 -34 -19 -46 45 -46 60 0 70 14 34 50 -27 27 -52 25
-79 -4z"/>
<path d="M4204 4380 c-33 -13 -38 -30 -16 -52 16 -17 25 -19 48 -11 29 9 58
49 48 65 -7 10 -53 9 -80 -2z"/>
<path d="M5502 4467 c-36 -39 -29 -48 35 -45 63 3 75 16 44 47 -27 27 -52 26
-79 -2z"/>
<path d="M5876 4469 c-22 -17 -26 -28 -26 -69 0 -41 4 -52 26 -69 34 -27 50
-26 79 4 19 18 25 35 25 65 0 30 -6 47 -25 65 -29 30 -45 31 -79 4z"/>
<path d="M6160 4482 c-27 -10 -39 -36 -40 -84 0 -39 4 -50 27 -67 47 -38 103
0 103 69 0 57 -46 99 -90 82z"/>
<path d="M6410 4483 c-19 -7 -40 -33 -40 -50 0 -17 111 -14 117 2 9 27 -44 59
-77 48z"/>
<path d="M6799 4371 l-24 -20 21 -22 c18 -18 27 -20 50 -12 29 9 58 49 48 65
-10 15 -72 8 -95 -11z"/>
<path d="M7330 4483 c-27 -10 -40 -36 -40 -84 0 -39 5 -51 26 -68 34 -27 50
-26 79 4 60 59 9 174 -65 148z"/>
<path d="M3586 3939 c-22 -17 -26 -29 -26 -68 0 -55 23 -83 66 -83 41 0 59 26
59 83 0 41 -4 54 -24 70 -30 24 -42 24 -75 -2z"/>
<path d="M6093 3950 c-28 -12 -43 -40 -43 -85 0 -46 39 -89 73 -80 59 18 78
105 32 150 -26 27 -30 28 -62 15z"/>
<path d="M7982 4025 c-71 -31 -84 -153 -22 -215 30 -30 104 -28 134 5 49 53
40 171 -17 205 -38 23 -51 24 -95 5z"/>
<path d="M1709 3953 c-22 -5 -39 -46 -39 -93 0 -66 63 -98 109 -55 23 22 26
97 5 122 -20 23 -49 33 -75 26z"/>
<path d="M1940 3940 c-37 -37 -26 -50 40 -50 66 0 75 10 40 48 -26 27 -54 28
-80 2z"/>
<path d="M2527 3939 c-23 -17 -27 -28 -27 -69 0 -41 4 -52 27 -69 47 -38 103
0 103 69 0 69 -56 107 -103 69z"/>
<path d="M3350 3953 c-19 -7 -40 -33 -40 -50 0 -9 17 -13 60 -13 43 0 60 4 60
13 0 32 -47 62 -80 50z"/>
<path d="M4880 3953 c-19 -7 -40 -33 -40 -50 0 -9 17 -13 60 -13 43 0 60 4 60
13 0 32 -47 62 -80 50z"/>
<path d="M6332 3937 c-36 -38 -28 -47 38 -47 66 0 77 13 40 50 -26 26 -52 25
-78 -3z"/>
<path d="M7080 3953 c-19 -7 -40 -33 -40 -50 0 -11 14 -13 57 -11 63 3 75 16
44 47 -21 21 -33 24 -61 14z"/>
<path d="M7330 3953 c-19 -7 -40 -33 -40 -50 0 -9 17 -13 60 -13 43 0 60 4 60
13 0 32 -47 62 -80 50z"/>
<path d="M8522 3849 c-37 -14 -26 -53 16 -57 40 -4 62 12 62 44 0 20 -5 24
-27 23 -16 0 -38 -4 -51 -10z"/>
<path d="M2190 3413 c-27 -10 -40 -36 -40 -84 0 -39 5 -51 26 -68 34 -27 50
-26 79 4 60 59 9 174 -65 148z"/>
<path d="M4025 3395 c-46 -45 -27 -132 32 -150 36 -10 73 34 73 85 0 44 -33
90 -65 90 -9 0 -27 -11 -40 -25z"/>
<path d="M6385 3395 c-51 -50 -24 -145 40 -145 42 0 65 29 65 83 0 41 -35 87
-65 87 -9 0 -27 -11 -40 -25z"/>
<path d="M5074 3310 c-31 -12 -37 -37 -13 -54 36 -24 89 -1 89 40 0 20 -5 24
-27 23 -16 0 -37 -4 -49 -9z"/>
<path d="M6640 3398 c-30 -32 -20 -43 40 -43 60 0 72 13 41 44 -27 27 -55 27
-81 -1z"/>
<path d="M1681 3307 c-34 -17 -36 -33 -7 -52 21 -14 29 -15 53 -3 19 9 29 22
31 41 3 24 0 27 -25 27 -15 0 -39 -6 -52 -13z"/>
<path d="M4281 3307 c-34 -17 -36 -33 -8 -52 19 -12 30 -13 51 -5 25 9 49 47
39 63 -7 11 -55 8 -82 -6z"/>
<path d="M5576 3399 c-22 -17 -26 -28 -26 -69 0 -41 4 -52 27 -69 72 -57 145
68 78 134 -29 30 -45 31 -79 4z"/>
<path d="M7381 3401 c-38 -38 -28 -52 36 -49 59 3 72 13 51 40 -22 29 -63 33
-87 9z"/>
<path d="M7632 3400 c-40 -37 -29 -51 35 -48 63 3 75 16 44 47 -26 26 -51 27
-79 1z"/>
<path d="M8080 2945 c0 -12 14 -15 65 -15 51 0 65 3 65 15 0 12 -14 15 -65 15
-51 0 -65 -3 -65 -15z"/>
<path d="M8080 2885 c0 -12 14 -15 65 -15 51 0 65 3 65 15 0 12 -14 15 -65 15
-51 0 -65 -3 -65 -15z"/>
<path d="M1735 2953 c-35 -9 -54 -34 -65 -89 -9 -42 -9 -62 2 -91 13 -37 58
-73 91 -73 109 0 143 202 41 248 -26 12 -35 13 -69 5z"/>
<path d="M3470 2872 c-27 -10 -39 -36 -40 -84 0 -39 4 -50 27 -67 47 -38 103
0 103 69 0 57 -46 99 -90 82z"/>
<path d="M7664 2936 c-3 -7 -4 -33 -2 -57 l3 -44 54 1 c40 1 58 6 68 20 18 25
16 58 -5 77 -23 21 -110 23 -118 3z"/>
<path d="M2254 2770 c-30 -12 -36 -35 -14 -55 15 -13 25 -15 47 -8 28 9 56 49
47 65 -7 10 -53 9 -80 -2z"/>
<path d="M2954 2770 c-30 -12 -36 -35 -14 -55 15 -13 25 -15 47 -8 28 9 56 49
47 65 -7 10 -53 9 -80 -2z"/>
<path d="M5843 2770 c-30 -12 -31 -55 -2 -63 30 -8 68 9 78 35 5 13 7 26 4 31
-6 10 -53 8 -80 -3z"/>
<path d="M6346 2859 c-22 -17 -26 -28 -26 -69 0 -41 4 -52 26 -69 34 -27 50
-26 79 4 19 18 25 35 25 65 0 30 -6 47 -25 65 -29 30 -45 31 -79 4z"/>
<path d="M2170 2345 c0 -12 16 -15 85 -15 69 0 85 3 85 15 0 12 -16 15 -85 15
-69 0 -85 -3 -85 -15z"/>
<path d="M2170 2285 c0 -12 15 -15 86 -15 64 0 85 3 82 13 -3 8 -32 13 -86 15
-68 2 -82 0 -82 -13z"/>
<path d="M2170 2225 c0 -12 15 -15 86 -15 64 0 85 3 82 13 -3 8 -32 13 -86 15
-68 2 -82 0 -82 -13z"/>
<path d="M3337 2346 c-7 -16 1 -26 20 -26 7 0 13 9 13 20 0 23 -25 27 -33 6z"/>
<path d="M3402 2343 c2 -10 10 -18 18 -18 8 0 16 8 18 18 2 12 -3 17 -18 17
-15 0 -20 -5 -18 -17z"/>
<path d="M3337 2294 c-9 -10 4 -34 19 -34 8 0 14 9 14 20 0 19 -19 27 -33 14z"/>
<path d="M3407 2294 c-14 -15 -6 -34 14 -34 14 0 19 5 17 17 -3 18 -20 27 -31
17z"/>
<path d="M4197 2374 c-4 -4 -7 -27 -7 -51 l0 -43 55 0 55 0 0 48 0 48 -48 3
c-26 1 -51 -1 -55 -5z"/>
<path d="M4337 2373 c-4 -3 -7 -26 -7 -50 l0 -43 64 0 63 0 -3 41 c-2 22 -6
44 -9 50 -7 10 -98 13 -108 2z"/>
<path d="M8120 2405 c0 -12 14 -15 65 -15 51 0 65 3 65 15 0 12 -14 15 -65 15
-51 0 -65 -3 -65 -15z"/>
<path d="M8120 2345 c0 -12 14 -15 65 -15 51 0 65 3 65 15 0 12 -14 15 -65 15
-51 0 -65 -3 -65 -15z"/>
<path d="M8397 2383 c-9 -8 -9 -153 0 -153 33 0 112 103 113 148 0 13 -101 18
-113 5z"/>
<path d="M2666 2425 c24 -18 44 -18 68 0 18 14 15 15 -34 15 -49 0 -52 -1 -34
-15z"/>
<path d="M2600 2351 c0 -17 6 -21 36 -21 28 0 35 3 32 18 -2 11 -14 18 -36 20
-27 3 -32 0 -32 -17z"/>
<path d="M2707 2364 c-4 -4 -7 -14 -7 -21 0 -10 11 -13 43 -11 29 2 42 8 42
18 0 16 -64 27 -78 14z"/>
<path d="M2705 2302 c-3 -3 -5 -11 -5 -19 0 -9 14 -13 46 -13 32 0 44 4 42 12
-5 13 -74 29 -83 20z"/>
<path d="M2600 2285 c0 -10 11 -15 35 -15 24 0 35 5 35 15 0 10 -11 15 -35 15
-24 0 -35 -5 -35 -15z"/>
<path d="M3002 2428 c7 -20 72 -22 88 -4 11 14 6 16 -40 16 -37 0 -50 -4 -48
-12z"/>
<path d="M3120 2425 c16 -19 91 -17 98 3 3 9 -12 12 -53 12 -51 0 -56 -2 -45
-15z"/>
<path d="M3025 2330 c-8 -12 17 -23 41 -18 10 1 19 9 22 16 5 15 -54 17 -63 2z"/>
<path d="M3123 2328 c2 -7 16 -13 32 -13 16 0 30 6 33 13 2 8 -8 12 -33 12
-25 0 -35 -4 -32 -12z"/>
<path d="M3027 2284 c-12 -12 4 -24 34 -24 19 0 29 5 29 15 0 15 -50 22 -63 9z"/>
<path d="M3120 2274 c0 -11 8 -14 32 -12 46 4 49 28 4 28 -26 0 -36 -4 -36
-16z"/>
<path d="M1738 2388 c-44 -25 -68 -70 -68 -126 0 -43 20 -68 45 -58 30 11 87
178 68 197 -4 4 -25 -2 -45 -13z"/>
<path d="M3360 1878 c1 -61 41 -79 59 -27 6 18 11 34 11 35 0 2 -16 4 -35 4
-21 0 -35 -5 -35 -12z"/>
<path d="M7547 1816 c-3 -8 0 -17 8 -19 15 -7 25 1 25 20 0 17 -26 17 -33 -1z"/>
<path d="M7612 1813 c2 -10 10 -18 18 -18 8 0 16 8 18 18 2 12 -3 17 -18 17
-15 0 -20 -5 -18 -17z"/>
<path d="M7547 1764 c-9 -10 4 -34 19 -34 8 0 14 9 14 20 0 19 -19 27 -33 14z"/>
<path d="M7617 1764 c-14 -15 -6 -34 14 -34 14 0 19 5 17 17 -3 18 -20 27 -31
17z"/>
<path d="M2693 1847 c-4 -7 -19 -21 -33 -30 -24 -17 -22 -17 60 -17 79 1 83 2
55 14 -17 7 -36 20 -44 29 -16 20 -27 21 -38 4z"/>
<path d="M4310 1900 c0 -6 30 -10 70 -10 40 0 70 4 70 10 0 6 -30 10 -70 10
-40 0 -70 -4 -70 -10z"/>
<path d="M4313 1848 c2 -9 25 -13 67 -13 42 0 65 4 68 13 3 9 -15 12 -68 12
-53 0 -71 -3 -67 -12z"/>
<path d="M4600 1900 c0 -5 16 -10 35 -10 19 0 38 0 42 -1 4 0 9 4 11 10 2 7
-14 11 -42 11 -25 0 -46 -4 -46 -10z"/>
<path d="M4600 1845 c0 -11 12 -15 45 -15 33 0 45 4 45 15 0 11 -12 15 -45 15
-33 0 -45 -4 -45 -15z"/>
<path d="M4780 1900 c0 -5 23 -10 50 -10 28 0 50 5 50 10 0 6 -22 10 -50 10
-27 0 -50 -4 -50 -10z"/>
<path d="M4787 1853 c-17 -16 -3 -23 43 -23 38 0 50 4 50 15 0 11 -11 15 -43
15 -24 0 -47 -3 -50 -7z"/>
<path d="M7212 1898 c7 -20 84 -22 91 -4 5 13 -3 16 -44 16 -36 0 -49 -4 -47
-12z"/>
<path d="M7330 1895 c9 -11 26 -15 54 -13 59 4 50 22 -13 26 -49 3 -53 2 -41
-13z"/>
<path d="M7240 1795 c0 -10 10 -15 30 -15 20 0 30 5 30 15 0 10 -10 15 -30 15
-20 0 -30 -5 -30 -15z"/>
<path d="M7333 1798 c2 -7 16 -13 32 -13 16 0 30 6 33 13 2 8 -8 12 -33 12
-25 0 -35 -4 -32 -12z"/>
<path d="M7237 1754 c-12 -12 4 -24 34 -24 19 0 29 5 29 15 0 15 -50 22 -63 9z"/>
<path d="M7333 1748 c2 -7 16 -13 32 -13 16 0 30 6 33 13 2 8 -8 12 -33 12
-25 0 -35 -4 -32 -12z"/>
<path d="M8418 1698 c-30 -29 -29 -53 4 -64 27 -8 30 -3 26 47 l-3 44 -27 -27z"/>
<path d="M6460 1814 c0 -12 41 -74 49 -74 4 0 17 18 30 40 l22 40 -50 0 c-28
0 -51 -3 -51 -6z"/>
<path d="M4690 1735 c0 -11 12 -15 50 -15 38 0 50 4 50 15 0 11 -12 15 -50 15
-38 0 -50 -4 -50 -15z"/>
<path d="M4690 1675 c0 -11 12 -15 50 -15 38 0 50 4 50 15 0 11 -12 15 -50 15
-38 0 -50 -4 -50 -15z"/>
<path d="M2656 1694 c-11 -28 -7 -34 24 -34 25 0 30 4 30 25 0 20 -5 25 -24
25 -13 0 -27 -7 -30 -16z"/>
<path d="M3813 1138 c-42 -20 -20 -58 33 -58 35 0 57 20 52 47 -4 22 -52 28
-85 11z"/>
<path d="M4260 1235 c-25 -30 14 -74 53 -59 41 15 26 74 -18 74 -12 0 -28 -7
-35 -15z"/>
<path d="M2184 1125 c-11 -28 4 -45 39 -45 37 0 57 15 57 42 0 15 -8 18 -45
18 -31 0 -47 -5 -51 -15z"/>
<path d="M4586 1115 c-7 -20 10 -55 27 -55 24 0 39 18 35 41 -4 29 -52 40 -62
14z"/>
</g>
</svg>
